<?xml version="1.0" encoding="UTF-8" standalone="no"?>
<svg
   xmlns:dc="http://purl.org/dc/elements/1.1/"
   xmlns:cc="http://creativecommons.org/ns#"
   xmlns:rdf="http://www.w3.org/1999/02/22-rdf-syntax-ns#"
   xmlns:svg="http://www.w3.org/2000/svg"
   xmlns="http://www.w3.org/2000/svg"
   xmlns:sodipodi="http://sodipodi.sourceforge.net/DTD/sodipodi-0.dtd"
   xmlns:inkscape="http://www.inkscape.org/namespaces/inkscape"
   inkscape:version="1.0 (4035a4fb49, 2020-05-01)"
   sodipodi:docname="avataaars.svg"
   xml:space="preserve"
   style="enable-background:new 0 0 264 280;"
   viewBox="0 0 264 280"
   y="0px"
   x="0px"
   id="Layer_1"
   version="1.1"><metadata
   id="metadata183"><rdf:RDF><cc:Work
       rdf:about=""><dc:format>image/svg+xml</dc:format><dc:type
         rdf:resource="http://purl.org/dc/dcmitype/StillImage" /></cc:Work></rdf:RDF></metadata><defs
   id="defs181"><inkscape:path-effect
   simplify_just_coalesce="false"
   simplify_individual_paths="false"
   helper_size="0"
   smooth_angles="360"
   threshold="0.000408163"
   steps="1"
   lpeversion="1"
   is_visible="true"
   id="path-effect1010"
   effect="simplify" />
		
	
			
			
			<defs
   id="defs27">
				<filter
   height="280"
   width="265"
   y="0"
   x="-1"
   filterUnits="userSpaceOnUse"
   id="Adobe_OpacityMaskFilter_1_">
					<feColorMatrix
   id="feColorMatrix24"
   values="1 0 0 0 0  0 1 0 0 0  0 0 1 0 0  0 0 0 1 0"
   type="matrix" />
				</filter>
			</defs>
			<mask
   id="mask-4_1_"
   height="280"
   width="265"
   y="0"
   x="-1"
   maskUnits="userSpaceOnUse">
				<g
   id="g30"
   class="st5">
					<path
   d="m 12,160 c 0,66.3 53.7,120 120,120 66.3,0 120,-53.7 120,-120 h 12 V 0 H 0 v 160 z"
   class="st2"
   id="path-3_1_" />
				</g>
			</mask>
			
		
				
				<defs
   id="defs12">
					<filter
   id="Adobe_OpacityMaskFilter"
   filterUnits="userSpaceOnUse"
   x="0"
   y="0"
   width="240"
   height="240">
						<feColorMatrix
   type="matrix"
   values="1 0 0 0 0  0 1 0 0 0  0 0 1 0 0  0 0 0 1 0"
   id="feColorMatrix9" />
					</filter>
				</defs>
				<mask
   maskUnits="userSpaceOnUse"
   x="0"
   y="0"
   width="240"
   height="240"
   id="mask-2_1_">
					<g
   class="st1"
   id="g15">
						<circle
   id="path-1_1_"
   class="st2"
   cx="120"
   cy="120"
   r="120" />
					</g>
				</mask>
				
			
			
				
				
				
				
			
					
				
					
				
					
					<defs
   id="defs40">
						<filter
   height="244"
   width="264"
   y="0"
   x="-32"
   filterUnits="userSpaceOnUse"
   id="Adobe_OpacityMaskFilter_2_">
							<feColorMatrix
   id="feColorMatrix37"
   values="1 0 0 0 0  0 1 0 0 0  0 0 1 0 0  0 0 0 1 0"
   type="matrix" />
						</filter>
					</defs>
					<mask
   id="mask-6_1_"
   height="244"
   width="264"
   y="0"
   x="-32"
   maskUnits="userSpaceOnUse">
						<g
   id="g43"
   class="st8">
							<path
   d="M 124,144.6 V 163 h 4 v 0 c 39.8,0 72,32.2 72,72 v 9 H 0 v -9 c 0,-39.8 32.2,-72 72,-72 v 0 h 4 V 144.6 C 58.8,136.4 46.4,119.7 44.3,99.9 38.5,99.1 34,94.1 34,88 V 74 C 34,68.1 38.3,63.1 44,62.2 V 56 56 C 44,25.1 69.1,0 100,0 v 0 0 c 30.9,0 56,25.1 56,56 v 6.2 c 5.7,1 10,5.9 10,11.8 v 14 c 0,6.1 -4.5,11.1 -10.3,11.9 -2.1,19.8 -14.5,36.5 -31.7,44.7 z"
   class="st2"
   id="path-5_1_" />
						</g>
					</mask>
					
					<defs
   id="defs54">
						<filter
   height="79"
   width="112"
   y="79"
   x="44"
   filterUnits="userSpaceOnUse"
   id="Adobe_OpacityMaskFilter_3_">
							<feColorMatrix
   id="feColorMatrix51"
   values="1 0 0 0 0  0 1 0 0 0  0 0 1 0 0  0 0 0 1 0"
   type="matrix" />
						</filter>
					</defs>
					<mask
   id="mask-6_2_"
   height="79"
   width="112"
   y="79"
   x="44"
   maskUnits="userSpaceOnUse">
						<g
   id="g57"
   class="st11">
							<path
   d="M 124,144.6 V 163 h 4 v 0 c 39.8,0 72,32.2 72,72 v 9 H 0 v -9 c 0,-39.8 32.2,-72 72,-72 v 0 h 4 V 144.6 C 58.8,136.4 46.4,119.7 44.3,99.9 38.5,99.1 34,94.1 34,88 V 74 C 34,68.1 38.3,63.1 44,62.2 V 56 56 C 44,25.1 69.1,0 100,0 v 0 0 c 30.9,0 56,25.1 56,56 v 6.2 c 5.7,1 10,5.9 10,11.8 v 14 c 0,6.1 -4.5,11.1 -10.3,11.9 -2.1,19.8 -14.5,36.5 -31.7,44.7 z"
   class="st2"
   id="path-5_2_" />
						</g>
					</mask>
					
				
					
					<defs
   id="defs68">
						<filter
   height="110"
   width="264"
   y="0"
   x="0"
   filterUnits="userSpaceOnUse"
   id="Adobe_OpacityMaskFilter_4_">
							<feColorMatrix
   id="feColorMatrix65"
   values="1 0 0 0 0  0 1 0 0 0  0 0 1 0 0  0 0 0 1 0"
   type="matrix" />
						</filter>
					</defs>
					<mask
   id="react-mask-952_1_"
   height="110"
   width="264"
   y="0"
   x="0"
   maskUnits="userSpaceOnUse">
						<g
   id="g71"
   class="st13">
							<path
   d="m 166,29.3 c 37,3 66,34 66,71.8 V 110 H 32 v -8.9 C 32,63 61.6,31.8 99,29.2 c 0,0.4 0,0.7 0,1.1 0,11.9 15,21.5 33.5,21.5 18.5,0 33.5,-9.6 33.5,-21.5 0,-0.3 0,-0.7 0,-1 z"
   class="st2"
   id="react-path-951_1_" />
						</g>
					</mask>
					
					<defs
   id="defs81">
						<filter
   height="53.799999"
   width="79.300003"
   y="4.9000001"
   x="92.900002"
   filterUnits="userSpaceOnUse"
   id="Adobe_OpacityMaskFilter_5_">
							<feColorMatrix
   id="feColorMatrix78"
   values="1 0 0 0 0  0 1 0 0 0  0 0 1 0 0  0 0 0 1 0"
   type="matrix" />
						</filter>
					</defs>
					<mask
   id="react-mask-952_2_"
   height="53.8"
   width="79.3"
   y="4.9"
   x="92.9"
   maskUnits="userSpaceOnUse">
						<g
   id="g84"
   class="st15">
							<path
   d="m 166,29.3 c 37,3 66,34 66,71.8 V 110 H 32 v -8.9 C 32,63 61.6,31.8 99,29.2 c 0,0.4 0,0.7 0,1.1 0,11.9 15,21.5 33.5,21.5 18.5,0 33.5,-9.6 33.5,-21.5 0,-0.3 0,-0.7 0,-1 z"
   class="st2"
   id="react-path-951_2_" />
						</g>
					</mask>
					
				
					
					
					
					
				
					<defs
   id="defs142">
						<filter
   height="280"
   width="264"
   y="0"
   x="-1"
   filterUnits="userSpaceOnUse"
   id="Adobe_OpacityMaskFilter_8_">
							<feColorMatrix
   id="feColorMatrix139"
   values="1 0 0 0 0  0 1 0 0 0  0 0 1 0 0  0 0 0 1 0"
   type="matrix" />
						</filter>
					</defs>
					<mask
   id="react-mask-925_1_"
   height="280"
   width="264"
   y="0"
   x="-1"
   maskUnits="userSpaceOnUse">
						<g
   id="g145"
   class="st25">
							<rect
   y="0"
   x="0"
   height="280"
   width="264"
   class="st2"
   id="react-path-927_1_" />
						</g>
					</mask>
					
				
						
						
					
						
					
							
							<defs
   id="defs154">
								<filter
   height="280"
   width="264"
   y="0"
   x="0"
   filterUnits="userSpaceOnUse"
   id="Adobe_OpacityMaskFilter_9_">
									<feColorMatrix
   id="feColorMatrix151"
   values="1 0 0 0 0  0 1 0 0 0  0 0 1 0 0  0 0 0 1 0"
   type="matrix" />
								</filter>
							</defs>
							<mask
   id="react-mask-924_1_"
   height="280"
   width="264"
   y="0"
   x="0"
   maskUnits="userSpaceOnUse">
								<g
   id="g157"
   class="st28">
									<path
   d="m 183.7,38.9 c 5.4,-5 6.7,-15 3.6,-21.5 -3.8,-8 -11.4,-9 -18.7,-5.5 -6.9,3.3 -13.1,4.4 -20.6,2.8 C 140.7,13.2 133.9,10.4 126.4,10 114,9.3 102,13.9 93.6,23.1 c -1.6,1.8 -2.9,3.8 -4.1,5.8 -1,1.6 -2.1,3.4 -2.5,5.3 -0.2,0.9 0.2,3.1 -0.3,3.8 -0.5,0.8 -2.3,1.5 -3.1,2.1 -1.6,1.2 -2.9,2.5 -4.2,4 -2.7,3.2 -4.1,6.6 -5.4,10.6 -4.1,13.2 -4.5,29 0.9,42 0.7,1.7 2.9,5.4 4.2,1.6 0.3,-0.7 -0.3,-3.2 -0.3,-3.9 0,-2.7 1.5,-20.7 8,-30.8 2.1,-3.3 12,-15.6 14,-15.7 1.1,1.7 11.9,12.5 39.9,11.2 12.7,-0.6 22.4,-6.3 24.7,-8.7 1,5.5 13,13.8 14.8,17.2 5.3,9.8 6.4,30.3 8.4,30.3 2,0 3.5,-5.2 3.9,-6.2 3.1,-7.4 3.6,-16.6 3.3,-24.6 C 195.5,57 191.3,45.9 183.7,38.9 Z"
   class="st2"
   id="react-path-926_1_" />
								</g>
							</mask>
							
						</defs><sodipodi:namedview
   inkscape:current-layer="g176"
   inkscape:window-maximized="1"
   inkscape:window-y="-8"
   inkscape:window-x="-8"
   inkscape:cy="185.77017"
   inkscape:cx="92.682752"
   inkscape:zoom="2.2905209"
   showgrid="false"
   id="namedview179"
   inkscape:window-height="1055"
   inkscape:window-width="1920"
   inkscape:pageshadow="2"
   inkscape:pageopacity="0"
   guidetolerance="10"
   gridtolerance="10"
   objecttolerance="10"
   borderopacity="1"
   bordercolor="#666666"
   pagecolor="#ffffff" />
<style
   id="style2"
   type="text/css">
	.st0{fill-rule:evenodd;clip-rule:evenodd;fill:#E6E6E6;}
	.st1{filter:url(#Adobe_OpacityMaskFilter);}
	.st2{fill-rule:evenodd;clip-rule:evenodd;fill:#FFFFFF;}
	.st3{mask:url(#mask-2_1_);}
	.st4{fill-rule:evenodd;clip-rule:evenodd;fill:#2C3E50;}
	.st5{filter:url(#Adobe_OpacityMaskFilter_1_);}
	.st6{mask:url(#mask-4_1_);}
	.st7{fill-rule:evenodd;clip-rule:evenodd;fill:#D0C6AC;}
	.st8{filter:url(#Adobe_OpacityMaskFilter_2_);}
	.st9{mask:url(#mask-6_1_);}
	.st10{fill-rule:evenodd;clip-rule:evenodd;fill:#EDB98A;}
	.st11{filter:url(#Adobe_OpacityMaskFilter_3_);}
	.st12{mask:url(#mask-6_2_);fill-rule:evenodd;clip-rule:evenodd;fill-opacity:0.1;}
	.st13{filter:url(#Adobe_OpacityMaskFilter_4_);}
	.st14{mask:url(#react-mask-952_1_);}
	.st15{filter:url(#Adobe_OpacityMaskFilter_5_);}
	.st16{opacity:0.6;mask:url(#react-mask-952_2_);}
	.st17{fill-rule:evenodd;clip-rule:evenodd;fill-opacity:0.16;}
	.st18{fill-rule:evenodd;clip-rule:evenodd;fill-opacity:0.7;}
	.st19{filter:url(#Adobe_OpacityMaskFilter_6_);}
	.st20{mask:url(#react-mask-934_1_);fill-rule:evenodd;clip-rule:evenodd;fill:#FFFFFF;}
	.st21{filter:url(#Adobe_OpacityMaskFilter_7_);}
	.st22{mask:url(#react-mask-934_2_);}
	.st23{fill-rule:evenodd;clip-rule:evenodd;fill:#FF4F6D;}
	.st24{fill-rule:evenodd;clip-rule:evenodd;fill-opacity:0.6;}
	.st25{filter:url(#Adobe_OpacityMaskFilter_8_);}
	.st26{mask:url(#react-mask-925_1_);}
	.st27{fill-rule:evenodd;clip-rule:evenodd;fill:#28354B;}
	.st28{filter:url(#Adobe_OpacityMaskFilter_9_);}
	.st29{mask:url(#react-mask-924_1_);}
	.st30{fill-rule:evenodd;clip-rule:evenodd;fill:#4A312C;}
</style>
<desc
   id="desc4">Created with getavataaars.com</desc>
<g
   id="g176">
	<circle
   style="fill:#ffffff;fill-opacity:0.26744187;stroke-width:1.06185"
   id="circle6"
   r="127.42189"
   cy="159.12683"
   cx="132"
   class="st0" />
<g
   transform="translate(32,36)"
   id="g35">
						<path
   id="path33"
   d="M 124,144.6 V 163 h 4 v 0 c 39.8,0 72,32.2 72,72 v 9 H 0 v -9 c 0,-39.8 32.2,-72 72,-72 v 0 h 4 V 144.6 C 58.8,136.4 46.4,119.7 44.3,99.9 38.5,99.1 34,94.1 34,88 V 74 C 34,68.1 38.3,63.1 44,62.2 V 56 56 C 44,25.1 69.1,0 100,0 v 0 0 c 30.9,0 56,25.1 56,56 v 6.2 c 5.7,1 10,5.9 10,11.8 v 14 c 0,6.1 -4.5,11.1 -10.3,11.9 -2.1,19.8 -14.5,36.5 -31.7,44.7 z"
   class="st7" />
					</g><g
   style="fill:#d0a279;fill-opacity:1"
   transform="translate(32,36)"
   id="g49"
   mask="url(#mask-6_1_)"
   class="st9">
						<g
   style="fill:#d0a279;fill-opacity:1"
   transform="translate(-32)"
   id="Color">
							<rect
   style="fill:#d0a279;fill-opacity:1"
   y="0"
   x="0"
   id="rect46"
   height="244"
   width="264"
   class="st10" />
						</g>
					</g><path
   transform="translate(32,36)"
   mask="url(#mask-6_2_)"
   d="m 156,79 v 23 c 0,30.9 -25.1,56 -56,56 -30.9,0 -56,-25.1 -56,-56 V 79 94 c 0,30.9 25.1,56 56,56 30.9,0 56,-25.1 56,-56 z"
   class="st12"
   id="Neck-Shadow" /><g
   transform="translate(0,170)"
   id="Clothes">
						<path
   id="path62"
   d="m 166,29.3 c 37,3 66,34 66,71.8 V 110 H 32 v -8.9 C 32,63 61.6,31.8 99,29.2 c 0,0.4 0,0.7 0,1.1 0,11.9 15,21.5 33.5,21.5 18.5,0 33.5,-9.6 33.5,-21.5 0,-0.3 0,-0.7 0,-1 z"
   class="st0" />
					</g><g
   style="fill:#3cbb23;fill-opacity:1"
   transform="translate(0,170)"
   id="g76"
   mask="url(#react-mask-952_1_)"
   class="st14">
						<rect
   style="fill:#3cbb23;fill-opacity:1"
   y="0"
   x="0"
   id="rect74"
   height="110"
   width="264"
   class="st2" />
					</g><g
   transform="translate(0,170)"
   mask="url(#react-mask-952_2_)"
   class="st16"
   id="Shadowy">
						<g
   id="g89"
   transform="translate(92,4)">
							<ellipse
   id="ellipse87"
   ry="26.9"
   rx="39.599998"
   cy="27.799999"
   cx="40.5"
   class="st17" />
						</g>
					</g><g
   style="fill:#d07758;fill-opacity:1"
   id="g123"
   transform="translate(78,134)">
						<g
   style="fill:#d07758;fill-opacity:1"
   id="Mouth">
							<path
   style="fill:#d07758;fill-opacity:1"
   id="path94"
   d="M 35.1,15.1 C 36.2,24.6 44.2,32 54,32 c 9.8,0 17.9,-7.4 18.9,-17 0.1,-0.8 -0.8,-2 -1.8,-2 -14.9,0 -26.3,0 -34,0 -1.1,0 -2.1,1.2 -2,2.1 z"
   class="st18" />
						</g>
						<defs
   id="defs100">
							<filter
   height="16"
   width="31"
   y="2"
   x="39"
   filterUnits="userSpaceOnUse"
   id="Adobe_OpacityMaskFilter_6_">
								<feColorMatrix
   id="feColorMatrix97"
   values="1 0 0 0 0  0 1 0 0 0  0 0 1 0 0  0 0 0 1 0"
   type="matrix" />
							</filter>
						</defs>
						<mask
   id="react-mask-934_1_"
   height="16"
   width="31"
   y="2"
   x="39"
   maskUnits="userSpaceOnUse">
							<g
   id="g103"
   class="st19">
								<path
   d="M 35.1,15.1 C 36.2,24.6 44.2,32 54,32 c 9.8,0 17.9,-7.4 18.9,-17 0.1,-0.8 -0.8,-2 -1.8,-2 -14.9,0 -26.3,0 -34,0 -1.1,0 -2.1,1.2 -2,2.1 z"
   class="st2"
   id="react-path-933_1_" />
							</g>
						</mask>
						<path
   style="fill:#d07758;fill-opacity:1"
   mask="url(#react-mask-934_1_)"
   d="m 44,2 h 21 c 2.8,0 5,2.2 5,5 v 6 c 0,2.8 -2.2,5 -5,5 H 44 c -2.8,0 -5,-2.2 -5,-5 V 7 c 0,-2.8 2.2,-5 5,-5 z"
   class="st20"
   id="Teeth" />
						<defs
   id="defs110">
							<filter
   height="22"
   width="32"
   y="24"
   x="38"
   filterUnits="userSpaceOnUse"
   id="Adobe_OpacityMaskFilter_7_">
								<feColorMatrix
   id="feColorMatrix107"
   values="1 0 0 0 0  0 1 0 0 0  0 0 1 0 0  0 0 0 1 0"
   type="matrix" />
							</filter>
						</defs>
						<mask
   id="react-mask-934_2_"
   height="22"
   width="32"
   y="24"
   x="38"
   maskUnits="userSpaceOnUse">
							<g
   id="g113"
   class="st21">
								<path
   d="M 35.1,15.1 C 36.2,24.6 44.2,32 54,32 c 9.8,0 17.9,-7.4 18.9,-17 0.1,-0.8 -0.8,-2 -1.8,-2 -14.9,0 -26.3,0 -34,0 -1.1,0 -2.1,1.2 -2,2.1 z"
   class="st2"
   id="react-path-933_2_" />
							</g>
						</mask>
						<g
   style="fill:#d07758;fill-opacity:1"
   mask="url(#react-mask-934_2_)"
   class="st22"
   id="Tongue">
							<g
   style="fill:#d07758;fill-opacity:1"
   id="g120"
   transform="translate(38,24)">
								<circle
   style="fill:#d07758;fill-opacity:1"
   id="circle116"
   r="11"
   cy="11"
   cx="11"
   class="st23" />
								<circle
   style="fill:#d07758;fill-opacity:1"
   id="circle118"
   r="11"
   cy="11"
   cx="21"
   class="st23" />
							</g>
						</g>
					</g><g
   id="g126"
   transform="translate(104,122)">
						<path
   d="m 16,8 c 0,4.4 5.4,8 12,8 v 0 c 6.6,0 12,-3.6 12,-8"
   class="st17"
   id="Nose" />
					</g><g
   id="g131"
   transform="translate(76,90)">
						<path
   d="M 16.2,22.4 C 18,18.6 22.2,16 27,16 c 4.8,0 9,2.6 10.8,6.4 0.6,1.1 -0.2,2 -1,1.4 -2.5,-2.1 -5.9,-3.4 -9.8,-3.4 -3.7,0 -7.1,1.2 -9.6,3.2 -0.9,0.7 -1.8,0 -1.2,-1.2 z"
   class="st24"
   id="Squint" />
						<path
   id="path129"
   d="M 74.2,22.4 C 76,18.6 80.2,16 85,16 c 4.8,0 9,2.6 10.8,6.4 0.6,1.1 -0.2,2 -1,1.4 -2.5,-2.1 -5.9,-3.4 -9.8,-3.4 -3.7,0 -7.1,1.2 -9.6,3.2 -0.9,0.7 -1.8,0 -1.2,-1.2 z"
   class="st24" />
					</g><path
   style="fill:#292018;fill-opacity:1"
   id="Eyebrow"
   class="st24"
   d="m 102.5,88.1 c -5.8,0.3 -15.2,4.5 -15,10.3 0,0.2 0.3,0.3 0.4,0.1 2.8,-3 22.3,-5.9 29.2,-4.4 0.6,0.1 1.1,-0.5 0.7,-0.9 -3.3,-3.7 -10.1,-5.3 -15.3,-5.1" /><path
   style="fill:#292018;fill-opacity:1"
   class="st24"
   d="m 162.5,88.1 c 5.8,0.3 15.2,4.5 15,10.3 0,0.2 -0.3,0.3 -0.4,0.1 -2.8,-3 -22.3,-5.9 -29.2,-4.4 -0.6,0.1 -1.1,-0.5 -0.7,-0.9 3.3,-3.7 10.1,-5.3 15.3,-5.1"
   id="path134" /><g
   transform="translate(-1)"
   id="Short-Hair">
								<path
   id="path148"
   d="m 183.7,38.9 c 5.4,-5 6.7,-15 3.6,-21.5 -3.8,-8 -11.4,-9 -18.7,-5.5 -6.9,3.3 -13.1,4.4 -20.6,2.8 C 140.7,13.2 133.9,10.4 126.4,10 114,9.3 102,13.9 93.6,23.1 c -1.6,1.8 -2.9,3.8 -4.1,5.8 -1,1.6 -2.1,3.4 -2.5,5.3 -0.2,0.9 0.2,3.1 -0.3,3.8 -0.5,0.8 -2.3,1.5 -3.1,2.1 -1.6,1.2 -2.9,2.5 -4.2,4 -2.7,3.2 -4.1,6.6 -5.4,10.6 -4.1,13.2 -4.5,29 0.9,42 0.7,1.7 2.9,5.4 4.2,1.6 0.3,-0.7 -0.3,-3.2 -0.3,-3.9 0,-2.7 1.5,-20.7 8,-30.8 2.1,-3.3 12,-15.6 14,-15.7 1.1,1.7 11.9,12.5 39.9,11.2 12.7,-0.6 22.4,-6.3 24.7,-8.7 1,5.5 13,13.8 14.8,17.2 5.3,9.8 6.4,30.3 8.4,30.3 2,0 3.5,-5.2 3.9,-6.2 3.1,-7.4 3.6,-16.6 3.3,-24.6 C 195.5,57 191.3,45.9 183.7,38.9 Z"
   class="st27" />
							</g><g
   transform="translate(-1)"
   id="g164"
   mask="url(#react-mask-924_1_)"
   class="st29">
								<g
   id="g162">
									<rect
   style="fill:#292018;fill-opacity:1"
   y="-67.670197"
   x="1.8731638"
   id="rect160"
   height="280"
   width="264"
   class="st30" />
								</g>
							</g><rect
   y="53.406837"
   x="-101.25689"
   height="51.245865"
   width="32.723263"
   id="rect1497"
   style="font-variation-settings:'wght' 400;fill:#edb98a;fill-opacity:1;stroke:none;stroke-width:1.51181;stroke-linecap:round;stroke-linejoin:round;stroke-opacity:1;paint-order:markers fill stroke" /></g>
<path
   sodipodi:nodetypes="csssccssssssccscsssccscsssssssscsssssssssssccccssssscssssssscssssssssscsscccscssssssssssscccsccssssssscssscssssssssssssssssccsscssccssccscsssscscsscsssssscss"
   id="path1026"
   d="m 94.217262,176.51349 c -0.86165,-0.0597 -2.1806,-0.236 -2.931,-0.39165 -0.75039,-0.15566 -1.63162,-0.28302 -1.95829,-0.28302 -0.32666,0 -0.59393,-0.0759 -0.59393,-0.16861 0,-0.0927 -0.10957,-0.12656 -0.2435,-0.0752 -0.13392,0.0514 -0.296,0.009 -0.36017,-0.0953 -0.0642,-0.10383 -0.17905,-0.15023 -0.25529,-0.10311 -0.0762,0.0471 -1.10872,-0.19345 -2.2944,-0.53461 -4.61861,-1.32892 -8.76408,-3.9893 -13.12053,-8.42019 -0.61034,-0.62076 -1.08176,-1.15661 -1.0476,-1.19077 0.0821,-0.0821 -0.98037,-1.50136 -1.79109,-2.39256 -1.51356,-1.66382 -4.70031,-7.71688 -5.67547,-10.78026 -1.276669,-4.01053 -1.520799,-8.76105 -0.46794,-9.10585 0.17242,-0.0565 0.21107,0.009 0.13005,0.22007 -0.17223,0.44882 1.06176,2.78237 1.96244,3.71112 0.42415,0.43736 0.65915,0.72922 0.52221,0.64858 -0.13693,-0.0807 -0.0932,0.0308 0.0972,0.24756 0.1904,0.2168 0.50373,0.47808 0.69628,0.58063 0.32448,0.17281 0.33099,0.16283 0.089,-0.13643 -0.18718,-0.23146 -0.10092,-0.20562 0.30462,0.0913 0.55439,0.40585 0.77797,0.6708 0.34814,0.41257 -0.14571,-0.0875 -0.13804,-0.0327 0.0232,0.1661 0.13244,0.16325 0.32827,0.2865 0.43517,0.27389 0.43954,-0.0518 0.80361,0.028 0.80361,0.1761 0,0.0868 -0.17624,0.12508 -0.39165,0.0851 -0.21542,-0.04 -0.27416,-0.0221 -0.13056,0.0397 0.14361,0.0618 0.37406,0.19973 0.51211,0.30655 0.1915,0.14818 0.22002,0.14264 0.12028,-0.0234 -0.19339,-0.3219 0.20183,-0.2659 0.73331,0.10391 0.25412,0.17682 0.83412,0.42892 1.28888,0.56021 0.45476,0.1313 0.82683,0.30457 0.82683,0.38506 0,0.0805 0.0716,0.10206 0.1592,0.048 0.0876,-0.0541 0.18826,-0.0112 0.22377,0.0953 0.0355,0.10652 0.41427,0.23023 0.8417,0.27491 0.42743,0.0447 1.42956,0.23216 2.22697,0.41665 2.98765,0.69121 8.62903,0.26123 11.95181,-0.91096 1.2839,-0.45293 3.11986,-1.47657 4.58334,-2.55545 0.60509,-0.44606 1.43675,-1.00686 1.84816,-1.2462 0.4114,-0.23935 1.1646,-0.81498 1.67378,-1.27919 0.50918,-0.4642 1.12665,-0.96858 1.37215,-1.12084 0.48742,-0.3023 2.712983,-2.19222 3.164873,-2.68756 0.154835,-0.16973 0.340295,-0.3086 0.412135,-0.3086 0.0718,0 0.44744,-0.31682 0.83467,-0.70406 0.39886,-0.39885 0.80892,-0.66382 0.94595,-0.61124 0.13304,0.051 0.19735,0.0207 0.1429,-0.0673 -0.12851,-0.20794 0.60665,-0.72457 0.83246,-0.58501 0.0949,0.0587 0.12261,0.0258 0.0615,-0.0731 -0.0611,-0.0988 0.21109,-0.39293 0.60486,-0.65351 0.57815,-0.3826 0.74827,-0.42857 0.88392,-0.23883 0.12767,0.17858 0.14471,0.1625 0.071,-0.067 -0.0606,-0.18872 0.0261,-0.36781 0.23111,-0.47755 0.18045,-0.0966 0.43211,-0.27591 0.55925,-0.39852 0.57048,-0.55018 1.99994,-1.35648 2.27658,-1.28414 0.16776,0.0439 0.26699,0.0182 0.22051,-0.057 -0.1193,-0.19303 2.71764,-1.20738 4.17468,-1.49267 3.00569,-0.58851 6.3126,-0.66005 8.52945,-0.18451 2.12122,0.45502 2.94217,0.66578 3.13326,0.80439 0.0957,0.0694 0.46183,0.2189 0.81352,0.33212 0.3517,0.11322 1.40918,0.70658 2.34995,1.31856 1.56426,1.01757 2.25878,1.55363 3.77829,2.91623 0.72938,0.65405 1.38014,0.62708 2.09979,-0.087 1.46859,-1.45731 4.02613,-3.27517 5.58036,-3.96642 0.47869,-0.2129 0.98784,-0.44272 1.13145,-0.51072 0.24419,-0.11561 1.39101,-0.38988 3.65548,-0.87421 1.51696,-0.32446 5.16598,-0.42937 6.26853,-0.18022 0.52546,0.11874 1.42538,0.31772 1.99981,0.44217 1.48326,0.32134 4.72677,1.56415 5.55921,2.1301 2.37132,1.61219 5.51356,3.9434 6.22975,4.62182 0.12204,0.11561 0.88772,0.79736 1.7015,1.515 0.81378,0.71764 1.52752,1.37023 1.58609,1.45021 0.0586,0.08 0.16318,0.13049 0.23246,0.11223 0.0693,-0.0183 0.60885,0.35408 1.19903,0.82743 0.59019,0.47334 1.34326,1.04949 1.67349,1.28034 0.33023,0.23084 1.12659,0.81964 1.76968,1.30845 3.3038,2.51115 7.30988,3.76053 12.16478,3.79384 1.38821,0.01 3.18384,-0.0433 3.9903,-0.11729 1.60803,-0.14764 3.6688,-0.636 3.6688,-0.86945 0,-0.0814 0.0783,-0.0995 0.17407,-0.0404 0.0957,0.0592 0.17407,0.0417 0.17407,-0.0388 0,-0.0805 0.37207,-0.25376 0.82683,-0.38506 0.45476,-0.13129 1.03476,-0.38339 1.28889,-0.56021 0.25412,-0.17683 0.54786,-0.3215 0.65276,-0.3215 0.10489,0 0.19072,-0.0783 0.19072,-0.17407 0,-0.0957 0.10623,-0.17407 0.23607,-0.17407 0.12984,0 0.61278,-0.28764 1.07321,-0.6392 0.46042,-0.35156 0.77649,-0.54108 0.70238,-0.42116 -0.0741,0.11991 0.14232,0.0364 0.48097,-0.18559 0.33865,-0.22199 0.58406,-0.43528 0.54535,-0.47399 -0.0387,-0.0387 -0.20935,0.033 -0.3792,0.15939 -0.16986,0.12637 -0.0738,-0.005 0.21338,-0.29105 0.28721,-0.28645 0.57654,-0.49428 0.64295,-0.46185 0.10086,0.0493 1.06466,-1.41655 1.11134,-1.69017 0.008,-0.0479 0.18495,-0.46619 0.39284,-0.92959 0.2079,-0.46341 0.33451,-0.91292 0.28137,-0.99891 -0.0531,-0.086 0.0143,-0.11378 0.14993,-0.0617 0.69028,0.26488 0.78366,1.45206 0.37604,4.78057 -0.28818,2.35319 -0.45962,2.94947 -1.87531,6.52244 -0.36652,0.92502 -2.46644,5.04609 -2.60183,5.10606 -0.072,0.0319 -0.131,0.1413 -0.131,0.24309 0,0.58393 -5.16992,7.44502 -5.60992,7.44502 -0.0517,0 -0.47518,0.37413 -0.94105,0.83141 -0.98861,0.97038 -3.15532,2.72605 -4.15436,3.36625 -3.42302,2.19352 -8.00975,3.89049 -11.48865,4.25049 -0.47869,0.0495 -1.65366,0.21631 -2.61105,0.37061 -0.95739,0.15429 -1.95612,0.28923 -2.2194,0.29986 -0.26328,0.0106 -0.47877,0.0587 -0.47886,0.10673 -3.5e-4,0.17633 -5.88367,0.0732 -7.57189,-0.13275 -4.05397,-0.49451 -7.70638,-1.6765 -12.50431,-4.04662 -5.16276,-2.55036 -11.39449,-6.66829 -13.15337,-8.69177 -0.53629,-0.61698 -1.21008,-1.35192 -1.4973,-1.6332 -0.28721,-0.28129 -0.40471,-0.44686 -0.2611,-0.36793 0.22498,0.12364 0.22805,0.10275 0.0222,-0.15102 -0.13139,-0.16199 -0.34681,-0.29452 -0.47869,-0.29452 -0.13189,0 -0.23979,-0.15391 -0.23979,-0.34202 0,-0.71563 -1.17409,-0.85558 -1.51163,-0.18019 -0.11961,0.23934 -0.59217,0.79049 -1.05011,1.22478 -0.45795,0.43428 -1.19789,1.22405 -1.64431,1.75504 -0.8704,1.03529 -3.81589,3.36591 -4.83497,3.82568 -0.34094,0.15382 -0.97238,0.54813 -1.40321,0.87624 -0.6576,0.50084 -1.67783,1.13275 -4.0871,2.53148 -0.62562,0.36322 -2.94304,1.47387 -3.65903,1.75364 -0.38295,0.14964 -0.82842,0.38509 -0.98993,0.52322 -0.16151,0.13814 -0.38881,0.19235 -0.5051,0.12048 -0.12345,-0.0763 -0.30913,0.003 -0.44615,0.19029 -0.12908,0.17653 -0.2359,0.24724 -0.23736,0.15714 -10e-4,-0.0901 -0.077,-0.0463 -0.16779,0.0973 -0.11223,0.17746 -0.43199,0.25545 -0.99824,0.24346 -0.54193,-0.0115 -0.71144,0.0275 -0.48498,0.11138 0.32348,0.11989 0.31488,0.14216 -0.12137,0.31447 -0.25823,0.10199 -1.04155,0.35778 -1.7407,0.56841 -0.69916,0.21063 -1.31036,0.42955 -1.35823,0.48649 -0.0479,0.0569 -0.2437,0.11453 -0.43517,0.12799 -0.19148,0.0135 -1.13146,0.15906 -2.08885,0.32357 -0.95739,0.16452 -2.21069,0.3333 -2.78513,0.37508 -2.952068,0.21471 -6.438678,0.30937 -7.833158,0.21266 z m 10.183108,-0.81859 c 0,-0.0792 -0.23499,-0.10944 -0.52221,-0.0673 -0.28721,0.0421 -0.52221,0.10692 -0.52221,0.14392 0,0.037 0.235,0.0673 0.52221,0.0673 0.28722,0 0.52221,-0.0648 0.52221,-0.14392 z m 1.4796,-0.27905 c 0.4787,-0.1332 0.75286,-0.24767 0.60925,-0.25439 -0.14361,-0.007 -0.65276,0.0968 -1.13146,0.22998 -0.47869,0.1332 -0.75285,0.24767 -0.60924,0.25439 0.1436,0.007 0.65276,-0.0968 1.13145,-0.22998 z m 3.13204,-0.79353 c 0.061,-0.0987 -0.009,-0.12785 -0.1638,-0.0684 -0.30156,0.11572 -0.35674,0.24049 -0.10635,0.24049 0.0901,0 0.21166,-0.0774 0.27015,-0.17208 z m -5.48199,-34.89293 c 0,-0.0355 -0.15666,-0.0237 -0.34814,0.0264 -0.19148,0.0501 -0.34814,0.16299 -0.34814,0.25094 0,0.0883 0.15581,0.0765 0.34814,-0.0264 0.19148,-0.10248 0.34814,-0.2154 0.34814,-0.25093 z"
   style="fill:#292018;fill-opacity:1;stroke:none;stroke-width:0.17407;stroke-opacity:1" /></svg>
