<?xml version="1.0" encoding="UTF-8" standalone="no"?>
<svg
   xmlns:dc="http://purl.org/dc/elements/1.1/"
   xmlns:cc="http://creativecommons.org/ns#"
   xmlns:rdf="http://www.w3.org/1999/02/22-rdf-syntax-ns#"
   xmlns:svg="http://www.w3.org/2000/svg"
   xmlns="http://www.w3.org/2000/svg"
   xmlns:sodipodi="http://sodipodi.sourceforge.net/DTD/sodipodi-0.dtd"
   xmlns:inkscape="http://www.inkscape.org/namespaces/inkscape"
   height="600"
   width="600"
   inkscape:version="1.0 (4035a4fb49, 2020-05-01)"
   sodipodi:docname="avataaars.svg"
   xml:space="preserve"
   viewBox="0 0 600 600"
   y="0px"
   x="0px"
   id="Layer_1"
   version="1.1"><metadata
   id="metadata183"><rdf:RDF><cc:Work
       rdf:about=""><dc:format>image/svg+xml</dc:format><dc:type
         rdf:resource="http://purl.org/dc/dcmitype/StillImage" /><dc:title></dc:title></cc:Work></rdf:RDF></metadata><defs
   id="defs181"><inkscape:path-effect
   simplify_just_coalesce="false"
   simplify_individual_paths="false"
   helper_size="0"
   smooth_angles="360"
   threshold="0.000408163"
   steps="1"
   lpeversion="1"
   is_visible="true"
   id="path-effect4043"
   effect="simplify" /><inkscape:path-effect
   simplify_just_coalesce="false"
   simplify_individual_paths="false"
   helper_size="0"
   smooth_angles="360"
   threshold="0.000408163"
   steps="1"
   lpeversion="1"
   is_visible="true"
   id="path-effect4039"
   effect="simplify" /><inkscape:path-effect
   simplify_just_coalesce="false"
   simplify_individual_paths="false"
   helper_size="0"
   smooth_angles="360"
   threshold="0.000408163"
   steps="1"
   lpeversion="1"
   is_visible="true"
   id="path-effect4031"
   effect="simplify" /><inkscape:path-effect
   simplify_just_coalesce="false"
   simplify_individual_paths="false"
   helper_size="0"
   smooth_angles="360"
   threshold="0.000408163"
   steps="1"
   lpeversion="1"
   is_visible="true"
   id="path-effect1010"
   effect="simplify" />
		
	
			
			
			<defs
   id="defs27">
				<filter
   height="280"
   width="265"
   y="0"
   x="-1"
   filterUnits="userSpaceOnUse"
   id="Adobe_OpacityMaskFilter_1_">
					<feColorMatrix
   id="feColorMatrix24"
   values="1 0 0 0 0  0 1 0 0 0  0 0 1 0 0  0 0 0 1 0"
   type="matrix" />
				</filter>
			</defs>
			<mask
   id="mask-4_1_"
   height="280"
   width="265"
   y="0"
   x="-1"
   maskUnits="userSpaceOnUse">
				<g
   id="g30"
   class="st5">
					<path
   d="m 12,160 c 0,66.3 53.7,120 120,120 66.3,0 120,-53.7 120,-120 h 12 V 0 H 0 v 160 z"
   class="st2"
   id="path-3_1_" />
				</g>
			</mask>
			
		
				
				<defs
   id="defs12">
					<filter
   id="Adobe_OpacityMaskFilter"
   filterUnits="userSpaceOnUse"
   x="0"
   y="0"
   width="240"
   height="240">
						<feColorMatrix
   type="matrix"
   values="1 0 0 0 0  0 1 0 0 0  0 0 1 0 0  0 0 0 1 0"
   id="feColorMatrix9" />
					</filter>
				</defs>
				<mask
   maskUnits="userSpaceOnUse"
   x="0"
   y="0"
   width="240"
   height="240"
   id="mask-2_1_">
					<g
   class="st1"
   id="g15">
						<circle
   id="path-1_1_"
   class="st2"
   cx="120"
   cy="120"
   r="120" />
					</g>
				</mask>
				
			
			
				
				
				
				
			
					
				
					
				
					
					<defs
   id="defs40">
						<filter
   height="244"
   width="264"
   y="0"
   x="-32"
   filterUnits="userSpaceOnUse"
   id="Adobe_OpacityMaskFilter_2_">
							<feColorMatrix
   id="feColorMatrix37"
   values="1 0 0 0 0  0 1 0 0 0  0 0 1 0 0  0 0 0 1 0"
   type="matrix" />
						</filter>
					</defs>
					<mask
   id="mask-6_1_"
   height="244"
   width="264"
   y="0"
   x="-32"
   maskUnits="userSpaceOnUse">
						<g
   id="g43"
   class="st8">
							<path
   d="M 124,144.6 V 163 h 4 v 0 c 39.8,0 72,32.2 72,72 v 9 H 0 v -9 c 0,-39.8 32.2,-72 72,-72 v 0 h 4 V 144.6 C 58.8,136.4 46.4,119.7 44.3,99.9 38.5,99.1 34,94.1 34,88 V 74 C 34,68.1 38.3,63.1 44,62.2 V 56 56 C 44,25.1 69.1,0 100,0 v 0 0 c 30.9,0 56,25.1 56,56 v 6.2 c 5.7,1 10,5.9 10,11.8 v 14 c 0,6.1 -4.5,11.1 -10.3,11.9 -2.1,19.8 -14.5,36.5 -31.7,44.7 z"
   class="st2"
   id="path-5_1_" />
						</g>
					</mask>
					
					<defs
   id="defs54">
						<filter
   height="79"
   width="112"
   y="79"
   x="44"
   filterUnits="userSpaceOnUse"
   id="Adobe_OpacityMaskFilter_3_">
							<feColorMatrix
   id="feColorMatrix51"
   values="1 0 0 0 0  0 1 0 0 0  0 0 1 0 0  0 0 0 1 0"
   type="matrix" />
						</filter>
					</defs>
					<mask
   id="mask-6_2_"
   height="79"
   width="112"
   y="79"
   x="44"
   maskUnits="userSpaceOnUse">
						<g
   id="g57"
   class="st11">
							<path
   d="M 124,144.6 V 163 h 4 v 0 c 39.8,0 72,32.2 72,72 v 9 H 0 v -9 c 0,-39.8 32.2,-72 72,-72 v 0 h 4 V 144.6 C 58.8,136.4 46.4,119.7 44.3,99.9 38.5,99.1 34,94.1 34,88 V 74 C 34,68.1 38.3,63.1 44,62.2 V 56 56 C 44,25.1 69.1,0 100,0 v 0 0 c 30.9,0 56,25.1 56,56 v 6.2 c 5.7,1 10,5.9 10,11.8 v 14 c 0,6.1 -4.5,11.1 -10.3,11.9 -2.1,19.8 -14.5,36.5 -31.7,44.7 z"
   class="st2"
   id="path-5_2_" />
						</g>
					</mask>
					
				
					
					<defs
   id="defs68">
						<filter
   height="110"
   width="264"
   y="0"
   x="0"
   filterUnits="userSpaceOnUse"
   id="Adobe_OpacityMaskFilter_4_">
							<feColorMatrix
   id="feColorMatrix65"
   values="1 0 0 0 0  0 1 0 0 0  0 0 1 0 0  0 0 0 1 0"
   type="matrix" />
						</filter>
					</defs>
					<mask
   id="react-mask-952_1_"
   height="110"
   width="264"
   y="0"
   x="0"
   maskUnits="userSpaceOnUse">
						<g
   id="g71"
   class="st13">
							<path
   d="m 166,29.3 c 37,3 66,34 66,71.8 V 110 H 32 v -8.9 C 32,63 61.6,31.8 99,29.2 c 0,0.4 0,0.7 0,1.1 0,11.9 15,21.5 33.5,21.5 18.5,0 33.5,-9.6 33.5,-21.5 0,-0.3 0,-0.7 0,-1 z"
   class="st2"
   id="react-path-951_1_" />
						</g>
					</mask>
					
					<defs
   id="defs81">
						<filter
   height="53.799999"
   width="79.300003"
   y="4.9000001"
   x="92.900002"
   filterUnits="userSpaceOnUse"
   id="Adobe_OpacityMaskFilter_5_">
							<feColorMatrix
   id="feColorMatrix78"
   values="1 0 0 0 0  0 1 0 0 0  0 0 1 0 0  0 0 0 1 0"
   type="matrix" />
						</filter>
					</defs>
					<mask
   id="react-mask-952_2_"
   height="53.8"
   width="79.3"
   y="4.9"
   x="92.9"
   maskUnits="userSpaceOnUse">
						<g
   id="g84"
   class="st15">
							<path
   d="m 166,29.3 c 37,3 66,34 66,71.8 V 110 H 32 v -8.9 C 32,63 61.6,31.8 99,29.2 c 0,0.4 0,0.7 0,1.1 0,11.9 15,21.5 33.5,21.5 18.5,0 33.5,-9.6 33.5,-21.5 0,-0.3 0,-0.7 0,-1 z"
   class="st2"
   id="react-path-951_2_" />
						</g>
					</mask>
					
				
					
					
					
					
				
					<defs
   id="defs142">
						<filter
   height="280"
   width="264"
   y="0"
   x="-1"
   filterUnits="userSpaceOnUse"
   id="Adobe_OpacityMaskFilter_8_">
							<feColorMatrix
   id="feColorMatrix139"
   values="1 0 0 0 0  0 1 0 0 0  0 0 1 0 0  0 0 0 1 0"
   type="matrix" />
						</filter>
					</defs>
					<mask
   id="react-mask-925_1_"
   height="280"
   width="264"
   y="0"
   x="-1"
   maskUnits="userSpaceOnUse">
						<g
   id="g145"
   class="st25">
							<rect
   y="0"
   x="0"
   height="280"
   width="264"
   class="st2"
   id="react-path-927_1_" />
						</g>
					</mask>
					
				
						
						
					
						
					
							
							<defs
   id="defs154">
								<filter
   height="280"
   width="264"
   y="0"
   x="0"
   filterUnits="userSpaceOnUse"
   id="Adobe_OpacityMaskFilter_9_">
									<feColorMatrix
   id="feColorMatrix151"
   values="1 0 0 0 0  0 1 0 0 0  0 0 1 0 0  0 0 0 1 0"
   type="matrix" />
								</filter>
							</defs>
							<mask
   id="react-mask-924_1_"
   height="280"
   width="264"
   y="0"
   x="0"
   maskUnits="userSpaceOnUse">
								<g
   id="g157"
   class="st28">
									<path
   d="m 183.7,38.9 c 5.4,-5 6.7,-15 3.6,-21.5 -3.8,-8 -11.4,-9 -18.7,-5.5 -6.9,3.3 -13.1,4.4 -20.6,2.8 C 140.7,13.2 133.9,10.4 126.4,10 114,9.3 102,13.9 93.6,23.1 c -1.6,1.8 -2.9,3.8 -4.1,5.8 -1,1.6 -2.1,3.4 -2.5,5.3 -0.2,0.9 0.2,3.1 -0.3,3.8 -0.5,0.8 -2.3,1.5 -3.1,2.1 -1.6,1.2 -2.9,2.5 -4.2,4 -2.7,3.2 -4.1,6.6 -5.4,10.6 -4.1,13.2 -4.5,29 0.9,42 0.7,1.7 2.9,5.4 4.2,1.6 0.3,-0.7 -0.3,-3.2 -0.3,-3.9 0,-2.7 1.5,-20.7 8,-30.8 2.1,-3.3 12,-15.6 14,-15.7 1.1,1.7 11.9,12.5 39.9,11.2 12.7,-0.6 22.4,-6.3 24.7,-8.7 1,5.5 13,13.8 14.8,17.2 5.3,9.8 6.4,30.3 8.4,30.3 2,0 3.5,-5.2 3.9,-6.2 3.1,-7.4 3.6,-16.6 3.3,-24.6 C 195.5,57 191.3,45.9 183.7,38.9 Z"
   class="st2"
   id="react-path-926_1_" />
								</g>
							</mask>
							
						<clipPath
   id="clipPath4045"
   clipPathUnits="userSpaceOnUse"><path
     inkscape:original-d="m 256.48052,225.88634 c -1.32103,-0.64796 -2.7811,-0.91369 -4.20324,-1.24187 -0.7,-0.16154 -1.38899,-0.38667 -2.10161,-0.47764 -2.24792,-0.28697 -4.5426,-0.0461 -6.68697,0.6687 -2.27527,0.75842 -3.35922,1.67417 -4.87194,3.43901 -0.55947,0.65271 -1.00324,1.1801 -1.43292,1.91056 -1.28124,2.17811 -1.60592,5.18492 -1.24187,7.64226 0.0443,0.29882 0.21077,0.56733 0.28659,0.85975 0.14735,0.56836 0.22947,1.15254 0.38211,1.7195 0.12796,0.47528 0.3967,0.97412 0.57317,1.43293 0.56088,1.4583 1.13157,2.80011 2.3882,3.82112 0.35125,0.28539 0.68108,0.59877 1.05081,0.85976 0.79085,0.55825 2.2379,1.12199 3.15243,1.52845 1.40978,0.62657 2.92884,1.41584 4.48982,1.62398 0.93862,0.12514 1.80149,-0.25932 2.67479,-0.47764 0.55469,-0.13868 2.42108,0 3.0569,0 1.28381,0 2.54025,0.0315 3.82113,0.0955 0.64989,0.0325 1.35907,-0.0924 2.00609,0 0.88551,0.1265 1.78178,0.21217 2.67479,0.28659 1.17026,0.0975 2.36355,-0.0901 3.53454,0 1.36671,0.10513 2.73271,0.19105 4.10771,0.19105 0.25474,0 0.51295,0.0419 0.76422,0 0.14047,-0.0234 0.2499,-0.13817 0.38212,-0.19105 0.92406,-0.36963 1.87686,-0.69962 2.77031,-1.14634 2.83666,-1.41833 2.14381,-4.77525 2.29268,-7.35567 0.10457,-1.8126 0.74366,-3.6168 0.28658,-5.4451 -0.16126,-0.64505 -0.32623,-1.29323 -0.57317,-1.91056 -0.14818,-0.37046 -0.35896,-0.7142 -0.57316,-1.05081 -0.0725,-0.11398 -0.21579,-0.17153 -0.28659,-0.28659 -0.30636,-0.49784 -0.57984,-1.01527 -0.85975,-1.52845 -0.48006,-0.88011 -0.58304,-1.60222 -1.43292,-2.19715 -1.19423,-0.83596 -2.62094,-1.02823 -4.01219,-1.33739 -1.02116,-0.22693 -2.03415,-0.55968 -3.0569,-0.76423 -0.44721,-0.0894 -1.27962,-0.0677 -1.7195,0 -1.41598,0.21784 0.0763,0.19234 -1.3374,0.28659 -0.96477,0.0643 -2.46419,0.10831 -3.43901,0 -0.44876,-0.0499 -0.83832,-0.28123 -1.24187,-0.38211 -0.17679,0.071 -0.1752,-0.16321 -0.28658,-0.19106 -0.65516,-0.16379 -0.49452,-0.066 -1.3374,-0.38211 z"
     inkscape:path-effect="#path-effect4043"
     id="path4047"
     d="m 256.48052,225.88634 c -1.67093,-0.81682 -3.52775,-1.07758 -5.31474,-1.52352 -1.33938,-0.33424 -2.73975,-0.38277 -4.10907,-0.26166 -1.78082,0.1575 -3.54978,0.59826 -5.15931,1.385 -1.3328,0.65147 -2.35825,1.7548 -3.33275,2.84921 -0.85833,0.96395 -1.60617,2.04471 -2.04541,3.26804 -0.71801,1.99973 -1.10042,4.22913 -0.56758,6.27964 0.1036,0.39868 0.28045,0.77121 0.36566,1.17897 0.15612,0.74709 0.31298,1.49544 0.62139,2.20279 0.47807,1.09649 0.87744,2.23491 1.55313,3.23751 0.49818,0.73921 1.19644,1.30261 1.89346,1.84015 0.8894,0.68591 1.95083,1.09257 2.97588,1.52605 1.65351,0.69925 3.25839,1.68816 5.07904,1.82199 0.90688,0.0667 1.73473,-0.4334 2.61843,-0.51815 1.13723,-0.10906 2.2787,0.0239 3.41839,0.0243 1.21721,5.1e-4 2.43326,0.13548 3.6494,0.0992 0.67677,-0.0202 1.35159,-0.041 2.03011,0.0404 0.99749,0.11979 1.99739,0.2685 3.00265,0.26949 1.10756,0.001 2.21362,-0.0829 3.32258,0.005 1.31315,0.10442 2.64799,-0.049 3.94677,0.16838 0.32573,0.0545 0.60302,-0.0975 0.90218,-0.2194 1.06377,-0.43347 2.18455,-0.76394 3.16141,-1.37868 0.92987,-0.58517 1.46821,-1.62232 1.66654,-2.68139 0.34454,-1.83978 0.0464,-3.72014 0.31392,-5.57086 0.20771,-1.43672 0.51029,-2.9166 0.14923,-4.35936 -0.25983,-1.03827 -0.31369,-2.34045 -1.19661,-2.97757 -0.31075,-0.22424 -0.45091,-0.59763 -0.63437,-0.92046 -0.34828,-0.61286 -0.67631,-1.23693 -0.95423,-1.8849 -0.26846,-0.62591 -0.79189,-1.09313 -1.38346,-1.41495 -1.40819,-0.76608 -3.02574,-0.91644 -4.55718,-1.30189 -0.79399,-0.19984 -1.57426,-0.5157 -2.39434,-0.55833 -0.679,-0.0353 -1.7105,-0.41629 -2.03175,0.18741 -0.10522,0.19773 -0.50186,0.13347 -0.73012,0.14558 -1.17055,0.0621 -2.36204,0.18919 -3.51811,-0.0216 -0.38777,-0.0707 -0.72518,-0.34705 -1.11716,-0.36355 -0.20923,-0.009 -0.31277,-0.21503 -0.58106,-0.26006 -0.36029,-0.0605 -0.703,-0.18303 -1.04292,-0.31309 z"
     style="fill:none;stroke:#000000;stroke-width:0.218809px;stroke-linecap:butt;stroke-linejoin:miter;stroke-opacity:1" /></clipPath></defs><sodipodi:namedview
   inkscape:current-layer="g176"
   inkscape:window-maximized="1"
   inkscape:window-y="-8"
   inkscape:window-x="-8"
   inkscape:cy="-295.14298"
   inkscape:cx="351.08796"
   inkscape:zoom="0.57263023"
   showgrid="false"
   id="namedview179"
   inkscape:window-height="1055"
   inkscape:window-width="1920"
   inkscape:pageshadow="2"
   inkscape:pageopacity="0"
   guidetolerance="10"
   gridtolerance="10"
   objecttolerance="10"
   borderopacity="1"
   bordercolor="#666666"
   pagecolor="#bebebe"
   inkscape:document-rotation="0" />
<style
   id="style2"
   type="text/css">
	.st0{fill-rule:evenodd;clip-rule:evenodd;fill:#E6E6E6;}
	.st1{filter:url(#Adobe_OpacityMaskFilter);}
	.st2{fill-rule:evenodd;clip-rule:evenodd;fill:#FFFFFF;}
	.st3{mask:url(#mask-2_1_);}
	.st4{fill-rule:evenodd;clip-rule:evenodd;fill:#2C3E50;}
	.st5{filter:url(#Adobe_OpacityMaskFilter_1_);}
	.st6{mask:url(#mask-4_1_);}
	.st7{fill-rule:evenodd;clip-rule:evenodd;fill:#D0C6AC;}
	.st8{filter:url(#Adobe_OpacityMaskFilter_2_);}
	.st9{mask:url(#mask-6_1_);}
	.st10{fill-rule:evenodd;clip-rule:evenodd;fill:#EDB98A;}
	.st11{filter:url(#Adobe_OpacityMaskFilter_3_);}
	.st12{mask:url(#mask-6_2_);fill-rule:evenodd;clip-rule:evenodd;fill-opacity:0.1;}
	.st13{filter:url(#Adobe_OpacityMaskFilter_4_);}
	.st14{mask:url(#react-mask-952_1_);}
	.st15{filter:url(#Adobe_OpacityMaskFilter_5_);}
	.st16{opacity:0.6;mask:url(#react-mask-952_2_);}
	.st17{fill-rule:evenodd;clip-rule:evenodd;fill-opacity:0.16;}
	.st18{fill-rule:evenodd;clip-rule:evenodd;fill-opacity:0.7;}
	.st19{filter:url(#Adobe_OpacityMaskFilter_6_);}
	.st20{mask:url(#react-mask-934_1_);fill-rule:evenodd;clip-rule:evenodd;fill:#FFFFFF;}
	.st21{filter:url(#Adobe_OpacityMaskFilter_7_);}
	.st22{mask:url(#react-mask-934_2_);}
	.st23{fill-rule:evenodd;clip-rule:evenodd;fill:#FF4F6D;}
	.st24{fill-rule:evenodd;clip-rule:evenodd;fill-opacity:0.6;}
	.st25{filter:url(#Adobe_OpacityMaskFilter_8_);}
	.st26{mask:url(#react-mask-925_1_);}
	.st27{fill-rule:evenodd;clip-rule:evenodd;fill:#28354B;}
	.st28{filter:url(#Adobe_OpacityMaskFilter_9_);}
	.st29{mask:url(#react-mask-924_1_);}
	.st30{fill-rule:evenodd;clip-rule:evenodd;fill:#4A312C;}
</style>
<desc
   id="desc4">Created with getavataaars.com</desc>
<g
   id="g176">
	<circle
   inkscape:export-ydpi="250"
   inkscape:export-xdpi="250"
   r="101.26331"
   cy="-202.81712"
   cx="503.63391"
   id="path4021"
   style="fill:#f3f2f7;fill-opacity:1;stroke:none;stroke-width:1.03804;stroke-linecap:round;stroke-linejoin:round;paint-order:markers fill stroke" /><circle
   style="fill:#ffcdb0;fill-opacity:1;stroke:none;stroke-width:2.5202;stroke-linecap:round;stroke-linejoin:round;paint-order:markers fill stroke"
   id="path1712"
   cx="300.46765"
   cy="299.6908"
   r="296.1246" /><path
   d="m 278.0001,327.63366 c -16.77145,4.39253 -119.33724,80.25278 -128.53768,157.24067 -4.81121,40.25953 33.83156,77.93135 44.1754,87.22537 a 296.1246,296.1246 0 0 0 3.53835,1.34151 l 42.13163,-37.45433 z"
   style="fill:#ff964a;fill-opacity:1;stroke:#000000;stroke-width:6.33882;stroke-linecap:round;stroke-linejoin:round;stroke-miterlimit:4;stroke-dasharray:none;stroke-opacity:1"
   id="path1158" /><path
   style="fill:none;stroke:#f5812d;stroke-width:4.22586;stroke-linecap:round;stroke-linejoin:round;stroke-miterlimit:4;stroke-dasharray:none;stroke-opacity:1"
   d="m 216.65951,473.04102 c -15.14677,-8.14202 -29.27361,-9.14441 -42.91899,-6.7767"
   id="path1160"
   sodipodi:nodetypes="cc" /><path
   d="m 335.60864,272.37504 c -8.9839,-0.0491 -17.81459,1.07915 -24.83151,3.11067 -39.66895,11.48488 -74.39909,27.82366 -48.57808,72.57678 -30.53749,35.63864 -37.08466,103.69032 -58.0317,164.36237 -4.85497,3.65817 -20.6607,23.06046 -15.50843,57.69859 a 296.1246,296.1246 0 0 0 0.0315,0.0138 296.1246,296.1246 0 0 0 1.02639,0.41414 296.1246,296.1246 0 0 0 1.36402,0.54471 296.1246,296.1246 0 0 0 2.04378,0.80581 296.1246,296.1246 0 0 0 2.05279,0.78781 296.1246,296.1246 0 0 0 2.05728,0.77428 296.1246,296.1246 0 0 0 1.73317,0.63926 296.1246,296.1246 0 0 0 1.43605,0.5177 296.1246,296.1246 0 0 0 0.73828,0.26559 296.1246,296.1246 0 0 0 0.96787,0.34214 296.1246,296.1246 0 0 0 1.27849,0.44567 296.1246,296.1246 0 0 0 0.16657,0.0585 296.1246,296.1246 0 0 0 1.95825,0.67075 296.1246,296.1246 0 0 0 1.97626,0.66175 296.1246,296.1246 0 0 0 0.46818,0.15305 296.1246,296.1246 0 0 0 1.33251,0.43666 296.1246,296.1246 0 0 0 0.39615,0.12607 296.1246,296.1246 0 0 0 2.0933,0.66625 296.1246,296.1246 0 0 0 1.94474,0.60324 296.1246,296.1246 0 0 0 0.66175,0.20259 296.1246,296.1246 0 0 0 1.5621,0.47269 296.1246,296.1246 0 0 0 0.13956,0.0406 296.1246,296.1246 0 0 0 1.99877,0.58523 296.1246,296.1246 0 0 0 2.11581,0.60321 296.1246,296.1246 0 0 0 0.009,0.005 296.1246,296.1246 0 0 0 2.1068,0.58521 296.1246,296.1246 0 0 0 1.71966,0.46369 296.1246,296.1246 0 0 0 1.71516,0.45017 296.1246,296.1246 0 0 0 0.58972,0.15304 296.1246,296.1246 0 0 0 0.71579,0.18463 296.1246,296.1246 0 0 0 1.23345,0.31512 296.1246,296.1246 0 0 0 0.40066,0.0991 296.1246,296.1246 0 0 0 1.86822,0.46367 296.1246,296.1246 0 0 0 1.12094,0.26562 296.1246,296.1246 0 0 0 1.17044,0.27909 296.1246,296.1246 0 0 0 0.45017,0.10349 296.1246,296.1246 0 0 0 1.80068,0.41417 296.1246,296.1246 0 0 0 2.14732,0.47718 296.1246,296.1246 0 0 0 1.97626,0.42767 296.1246,296.1246 0 0 0 0.17102,0.036 296.1246,296.1246 0 0 0 1.74217,0.36013 296.1246,296.1246 0 0 0 2.15633,0.43217 296.1246,296.1246 0 0 0 1.35502,0.26561 296.1246,296.1246 0 0 0 1.12093,0.21159 296.1246,296.1246 0 0 0 0.36463,0.0675 296.1246,296.1246 0 0 0 1.88622,0.34664 296.1246,296.1246 0 0 0 1.82771,0.32413 296.1246,296.1246 0 0 0 1.38652,0.23408 296.1246,296.1246 0 0 0 0.92285,0.15766 296.1246,296.1246 0 0 0 0.78329,0.12608 296.1246,296.1246 0 0 0 1.16595,0.189 296.1246,296.1246 0 0 0 0.40967,0.0629 296.1246,296.1246 0 0 0 2.17433,0.33312 296.1246,296.1246 0 0 0 2.03478,0.29713 296.1246,296.1246 0 0 0 0.80581,0.11247 296.1246,296.1246 0 0 0 1.09841,0.15305 296.1246,296.1246 0 0 0 0.40967,0.0539 296.1246,296.1246 0 0 0 1.8502,0.2431 296.1246,296.1246 0 0 0 1.86822,0.23408 296.1246,296.1246 0 0 0 0.32863,0.0406 296.1246,296.1246 0 0 0 0.86433,0.0991 296.1246,296.1246 0 0 0 1.62962,0.189 296.1246,296.1246 0 0 0 2.18332,0.23408 296.1246,296.1246 0 0 0 1.97628,0.19799 296.1246,296.1246 0 0 0 0.85082,0.0811 296.1246,296.1246 0 0 0 1.13442,0.1081 296.1246,296.1246 0 0 0 0.41416,0.036 296.1246,296.1246 0 0 0 2.18784,0.189 296.1246,296.1246 0 0 0 1.91324,0.14866 296.1246,296.1246 0 0 0 1.12543,0.0811 296.1246,296.1246 0 0 0 0.92734,0.0675 296.1246,296.1246 0 0 0 0.41417,0.027 296.1246,296.1246 0 0 0 2.19233,0.13967 296.1246,296.1246 0 0 0 1.88623,0.10349 296.1246,296.1246 0 0 0 0.93635,0.0496 296.1246,296.1246 0 0 0 1.44505,0.0721 296.1246,296.1246 0 0 0 0.12147,0.005 296.1246,296.1246 0 0 0 1.77817,0.0719 296.1246,296.1246 0 0 0 2.14732,0.0765 296.1246,296.1246 0 0 0 1.256,0.036 296.1246,296.1246 0 0 0 1.23795,0.0316 296.1246,296.1246 0 0 0 0.16664,0.005 296.1246,296.1246 0 0 0 1.78269,0.0316 296.1246,296.1246 0 0 0 2.19683,0.027 296.1246,296.1246 0 0 0 0.41416,0.005 296.1246,296.1246 0 0 0 0.95436,0.005 296.1246,296.1246 0 0 0 0.82833,0.005 296.1246,296.1246 0 0 0 0.41416,0 296.1246,296.1246 0 0 0 1.6116,-0.005 296.1246,296.1246 0 0 0 0.51321,-0.005 296.1246,296.1246 0 0 0 0.0719,0 296.1246,296.1246 0 0 0 0.14405,0 296.1246,296.1246 0 0 0 1.8322,-0.0184 296.1246,296.1246 0 0 0 0.22058,-0.005 296.1246,296.1246 0 0 0 1.6071,-0.0316 296.1246,296.1246 0 0 0 1.63863,-0.0359 296.1246,296.1246 0 0 0 0.55822,-0.0138 296.1246,296.1246 0 0 0 2.19683,-0.0719 296.1246,296.1246 0 0 0 1.45855,-0.0539 296.1246,296.1246 0 0 0 1.22447,-0.0496 296.1246,296.1246 0 0 0 0.42318,-0.0231 296.1246,296.1246 0 0 0 1.87271,-0.0901 296.1246,296.1246 0 0 0 2.18784,-0.12147 296.1246,296.1246 0 0 0 0.005,0 296.1246,296.1246 0 0 0 0.0184,0 296.1246,296.1246 0 0 0 2.17434,-0.13968 296.1246,296.1246 0 0 0 2.19233,-0.15304 296.1246,296.1246 0 0 0 2.18784,-0.17102 296.1246,296.1246 0 0 0 2.18784,-0.189 296.1246,296.1246 0 0 0 2.18784,-0.2026 296.1246,296.1246 0 0 0 2.18784,-0.22058 296.1246,296.1246 0 0 0 1.59811,-0.17102 296.1246,296.1246 0 0 0 0.045,-0.005 296.1246,296.1246 0 0 0 2.13831,-0.2431 296.1246,296.1246 0 0 0 1.14794,-0.13506 296.1246,296.1246 0 0 0 1.61612,-0.2026 296.1246,296.1246 0 0 0 2.17882,-0.28362 296.1246,296.1246 0 0 0 1.59362,-0.21597 296.1246,296.1246 0 0 0 0.2026,-0.0316 296.1246,296.1246 0 0 0 1.89072,-0.27011 296.1246,296.1246 0 0 0 0.0811,-0.0138 296.1246,296.1246 0 0 0 1.66113,-0.25209 296.1246,296.1246 0 0 0 0.5132,-0.0765 296.1246,296.1246 0 0 0 1.319,-0.20698 296.1246,296.1246 0 0 0 0.85084,-0.13506 296.1246,296.1246 0 0 0 1.56658,-0.26112 296.1246,296.1246 0 0 0 0.59874,-0.0991 296.1246,296.1246 0 0 0 1.5531,-0.27011 296.1246,296.1246 0 0 0 0.61222,-0.1081 296.1246,296.1246 0 0 0 1.00839,-0.18462 296.1246,296.1246 0 0 0 1.15244,-0.20721 296.1246,296.1246 0 0 0 1.15244,-0.22058 296.1246,296.1246 0 0 0 1.00839,-0.189 296.1246,296.1246 0 0 0 0.94537,-0.18462 296.1246,296.1246 0 0 0 1.20647,-0.2386 296.1246,296.1246 0 0 0 0.57622,-0.11709 296.1246,296.1246 0 0 0 1.57559,-0.32411 296.1246,296.1246 0 0 0 1.12992,-0.2431 296.1246,296.1246 0 0 0 1.02189,-0.21596 296.1246,296.1246 0 0 0 0.61225,-0.13507 296.1246,296.1246 0 0 0 1.53058,-0.33762 296.1246,296.1246 0 0 0 0.64825,-0.14866 296.1246,296.1246 0 0 0 2.0663,-0.47269 296.1246,296.1246 0 0 0 2.08428,-0.4952 296.1246,296.1246 0 0 0 0.22519,-0.0539 296.1246,296.1246 0 0 0 1.96275,-0.48619 296.1246,296.1246 0 0 0 2.11131,-0.5357 296.1246,296.1246 0 0 0 0.22519,-0.0585 296.1246,296.1246 0 0 0 1.35052,-0.35115 296.1246,296.1246 0 0 0 0.1081,-0.027 296.1246,296.1246 0 0 0 1.95823,-0.52671 296.1246,296.1246 0 0 0 0.0539,-0.0138 296.1246,296.1246 0 0 0 1.0399,-0.28362 296.1246,296.1246 0 0 0 1.64312,-0.45917 296.1246,296.1246 0 0 0 1.54861,-0.44116 296.1246,296.1246 0 0 0 1.44504,-0.41866 296.1246,296.1246 0 0 0 0.66628,-0.19361 296.1246,296.1246 0 0 0 1.55759,-0.46817 296.1246,296.1246 0 0 0 0.54469,-0.16203 296.1246,296.1246 0 0 0 1.43606,-0.44118 296.1246,296.1246 0 0 0 0.66624,-0.20697 296.1246,296.1246 0 0 0 0.97688,-0.31063 296.1246,296.1246 0 0 0 1.11644,-0.35113 296.1246,296.1246 0 0 0 0.73828,-0.2386 296.1246,296.1246 0 0 0 1.35052,-0.43666 296.1246,296.1246 0 0 0 1.06691,-0.35564 296.1246,296.1246 0 0 0 1.01737,-0.33762 296.1246,296.1246 0 0 0 0.84633,-0.28811 296.1246,296.1246 0 0 0 1.23348,-0.41866 296.1246,296.1246 0 0 0 1.02639,-0.36014 296.1246,296.1246 0 0 0 1.60261,-0.56274 296.1246,296.1246 0 0 0 2.0663,-0.74277 296.1246,296.1246 0 0 0 1.51258,-0.55372 296.1246,296.1246 0 0 0 0.94085,-0.35113 296.1246,296.1246 0 0 0 1.66565,-0.62573 296.1246,296.1246 0 0 0 1.50356,-0.57622 296.1246,296.1246 0 0 0 1.12543,-0.43668 296.1246,296.1246 0 0 0 1.46757,-0.58072 296.1246,296.1246 0 0 0 2.03929,-0.81931 296.1246,296.1246 0 0 0 1.48556,-0.60773 296.1246,296.1246 0 0 0 0.54471,-0.22519 296.1246,296.1246 0 0 0 1.48557,-0.62123 296.1246,296.1246 0 0 0 0.54019,-0.22957 296.1246,296.1246 0 0 0 1.48108,-0.63022 296.1246,296.1246 0 0 0 0.54019,-0.23411 296.1246,296.1246 0 0 0 2.01228,-0.87784 296.1246,296.1246 0 0 0 1.47206,-0.65274 296.1246,296.1246 0 0 0 0.0855,-0.0406 296.1246,296.1246 0 0 0 1.91323,-0.86434 296.1246,296.1246 0 0 0 0.5357,-0.24309 296.1246,296.1246 0 0 0 0.54921,-0.25658 296.1246,296.1246 0 0 0 1.44507,-0.67077 296.1246,296.1246 0 0 0 1.45406,-0.68427 296.1246,296.1246 0 0 0 0.53118,-0.25209 296.1246,296.1246 0 0 0 1.44956,-0.69775 296.1246,296.1246 0 0 0 0.53121,-0.2566 296.1246,296.1246 0 0 0 1.44505,-0.70677 296.1246,296.1246 0 0 0 0.52671,-0.2611 296.1246,296.1246 0 0 0 0.13045,-0.0631 296.1246,296.1246 0 0 0 1.78719,-0.89584 c 0.86066,-78.01919 -2.4249,-189.0205 -20.85649,-244.33547 C 404.55984,290.68462 394.20537,287.19 377.75453,288.39177 371.5163,277.11825 353.26894,272.47112 335.6094,272.37466 Z"
   style="fill:#ff964a;fill-opacity:1;stroke:#000000;stroke-width:6.33882;stroke-linecap:round;stroke-linejoin:round;stroke-miterlimit:4;stroke-dasharray:none;stroke-opacity:1"
   id="path1162" /><path
   d="m 358.76549,523.30554 c -7.2637,7.81256 -9.30963,44.99042 -9.35457,64.66272 a 296.1246,296.1246 0 0 0 11.35334,-2.1293 c 2.63821,-21.44425 7.55289,-60.83256 -1.99877,-62.53342 z"
   style="fill:#f5812d;fill-opacity:1;stroke:#f5812d;stroke-width:6.33882;stroke-linecap:round;stroke-linejoin:round;stroke-miterlimit:4;stroke-dasharray:none;stroke-opacity:1"
   id="path1164" /><path
   style="fill:none;stroke:#000000;stroke-width:6.33882;stroke-linecap:round;stroke-linejoin:round;stroke-miterlimit:4;stroke-dasharray:none;stroke-opacity:1"
   d="m 266.06381,354.29619 c -32.82253,-49.50704 3.25369,-66.80864 44.71408,-78.81219 24.94899,-7.22317 72.8238,-3.02585 69.01125,24.90031 -3.85507,28.23777 -47.54584,34.47935 -55.42464,63.49553"
   id="path1166"
   sodipodi:nodetypes="cssc" /><path
   style="fill:#8767d0;fill-opacity:1;stroke:#000000;stroke-width:6.33882;stroke-linecap:round;stroke-linejoin:round;stroke-miterlimit:4;stroke-dasharray:none;stroke-opacity:1"
   d="m 288.89567,341.75113 c 23.38524,-20.40888 36.45355,-31.83146 49.4133,-49.41332 -6.38116,-6.90889 -4.81697,-29.70848 -6.49433,-46.02497 l -62.40191,35.5776 c 5.72404,23.22667 9.44105,43.81666 19.48294,59.86069 z"
   id="path1168"
   sodipodi:nodetypes="ccccc" /><path
   d="m 335.60864,272.37504 c -8.9839,-0.0491 -17.81459,1.07915 -24.83151,3.11067 -39.66895,11.48488 -74.39909,27.82366 -48.57808,72.57678 -30.53749,35.63864 -37.08466,103.69032 -58.0317,164.36237 -4.85497,3.65817 -20.6607,23.06046 -15.50843,57.69859 A 296.1246,296.1246 0 0 0 300.4682,592.04232 296.1246,296.1246 0 0 0 433.84072,560.30518 C 434.70138,482.286 431.41582,371.28469 412.98424,315.96971 404.55909,290.685 394.20461,287.19038 377.75377,288.39215 371.51554,277.11862 353.26818,272.4715 335.60864,272.37504 Z"
   style="fill:none;fill-opacity:1;stroke:#000000;stroke-width:6.33882;stroke-linecap:round;stroke-linejoin:round;stroke-miterlimit:4;stroke-dasharray:none;stroke-opacity:1"
   id="path1170" /><path
   id="path1172"
   style="fill:#8767d0;fill-opacity:1;stroke:#000000;stroke-width:6.33882;stroke-linecap:butt;stroke-linejoin:round;stroke-miterlimit:4;stroke-dasharray:none;stroke-opacity:1"
   d="m 335.20526,51.623282 c -4.513,22.264199 -17.34262,47.023355 -36.02244,65.709738 -9.88679,-0.26021 -21.01633,6.90186 -33.8754,9.15233 -12.41112,2.17202 -26.27086,-4.1292 -40.1055,1.41091 -7.75994,-22.26191 -10.78423,-47.829096 -15.55106,-72.179439 -5.60393,-0.556378 -44.28503,84.658589 -31.37195,110.140729 -3.98704,5.80914 -7.76303,12.38578 -11.27659,19.8249 -4.56252,4.37245 -7.92448,5.03363 -15.07924,5.95875 1.38672,8.22531 6.88925,17.23382 11.8039,16.57531 -4.51985,5.41968 -6.61582,7.21624 -8.51323,12.27124 3.70606,0.0885 6.84242,5.71707 7.01017,7.56987 0.19988,7.0222 1.55508,11.34413 3.35904,15.96062 56.45987,-1.66325 135.03227,-13.60781 198.58881,-18.28391 3.08117,-4.19387 13.4645,-12.46358 19.2946,-15.28289 -1.57766,-4.13839 -5.01894,-7.28064 -8.19171,-9.14207 3.61971,-6.28267 6.47651,-9.8368 14.6892,-11.18937 -2.42377,-9.19421 -7.72779,-11.98796 -15.21349,-12.37974 11.29706,-9.11214 11.59879,-16.39167 11.95383,-27.58028 -8.11657,1.36536 -15.63774,0.14177 -23.00325,-1.75813 -2.32399,-5.01504 -3.91943,-7.54014 -3.91943,-7.54014 16.89566,-22.13593 -18.78983,-89.812934 -24.57626,-89.238428 z"
   sodipodi:nodetypes="ccscccccccccccccccccc" /><path
   style="fill:#8767d0;fill-opacity:1;stroke:#000000;stroke-width:6.33882;stroke-linecap:round;stroke-linejoin:round;stroke-miterlimit:4;stroke-dasharray:none;stroke-opacity:1"
   d="m 306.01103,122.81193 c -14.57674,-12.70978 -25.91404,-2.59435 -42.43078,3.39164 -14.96343,5.42304 -26.67797,-8.39248 -32.30817,-20.56309 -13.04999,27.33068 -2.67714,36.66009 7.49057,43.80404 -12.71361,2.11862 -5.80001,15.79508 -10.68657,21.03366 9.49773,0.78957 19.27154,-0.34675 26.86621,-10.51682"
   id="path1174"
   sodipodi:nodetypes="cscccc" /><path
   d="m 227.15113,195.11386 a 37.968362,23.565775 80.201265 0 1 -17.08244,41.05893 37.968362,23.565775 80.201265 0 1 -29.4995,-33.85292 37.968362,23.565775 80.201265 0 1 17.08245,-41.05891 37.968362,23.565775 80.201265 0 1 29.49949,33.8529"
   style="fill:#f3f2f7;fill-opacity:1;stroke:#000000;stroke-width:6.33882;stroke-linecap:round;stroke-linejoin:round;stroke-miterlimit:4;stroke-dasharray:none;stroke-opacity:1;paint-order:markers fill stroke"
   id="path1176" /><path
   d="m 318.51428,170.40706 a 37.862065,25.031238 85.440621 0 1 -22.34378,39.21163 37.862065,25.031238 85.440621 0 1 -27.64199,-36.32248 37.862065,25.031238 85.440621 0 1 22.34376,-39.21162 37.862065,25.031238 85.440621 0 1 27.64201,36.32247"
   style="fill:#f3f2f7;fill-opacity:1;stroke:#000000;stroke-width:6.33879;stroke-linecap:round;stroke-linejoin:round;stroke-miterlimit:4;stroke-dasharray:none;stroke-opacity:1;paint-order:markers fill stroke"
   id="path1178" /><path
   d="m 217.24037,197.9587 a 22.848225,14.18118 80.201265 0 1 -10.27972,24.70804 22.848225,14.18118 80.201265 0 1 -17.7519,-20.37168 22.848225,14.18118 80.201265 0 1 10.27969,-24.70802 22.848225,14.18118 80.201265 0 1 17.75193,20.37166"
   style="fill:#000000;fill-opacity:1;stroke:#000000;stroke-width:6.33882;stroke-linecap:round;stroke-linejoin:round;stroke-miterlimit:4;stroke-dasharray:none;stroke-opacity:1;paint-order:markers fill stroke"
   id="path1180" /><path
   d="m 310.09841,173.81406 a 26.067937,16.212199 86.066932 0 1 -14.46672,27.00619 26.067937,16.212199 86.066932 0 1 -17.89709,-25.01634 26.067937,16.212199 86.066932 0 1 14.46671,-27.00622 26.067937,16.212199 86.066932 0 1 17.8971,25.01637"
   style="fill:#000000;fill-opacity:1;stroke:#000000;stroke-width:6.33879;stroke-linecap:round;stroke-linejoin:round;stroke-miterlimit:4;stroke-dasharray:none;stroke-opacity:1;paint-order:markers fill stroke"
   id="path1182" /><path
   style="fill:#f3f2f7;fill-opacity:1;stroke:#000000;stroke-width:6.33882;stroke-linecap:round;stroke-linejoin:round;stroke-miterlimit:4;stroke-dasharray:none;stroke-opacity:1"
   d="m 238.6132,213.80753 c 2.77657,-4.43339 24.73544,-5.28445 31.34215,-11.718 20.57441,-25.33348 83.1047,-43.5252 93.95311,-10.2429 13.89602,42.63221 -18.63471,64.49418 -29.2194,73.01576 -10.2221,8.22965 -32.73098,34.6385 -50.48936,41.18462 -23.79143,8.77001 -40.93899,-5.11727 -63.16981,-15.38863 -15.46758,-7.14652 -36.91655,-12.15643 -48.292,-29.41092 -25.6984,-38.97977 8.7686,-72.08154 65.87531,-47.43993 z"
   id="path1184"
   sodipodi:nodetypes="ccsssssc" /><path
   style="fill:#2f2449;fill-opacity:1;stroke:#000000;stroke-width:6.33882;stroke-linecap:butt;stroke-linejoin:round;stroke-miterlimit:4;stroke-dasharray:none;stroke-opacity:1"
   d="m 258.19144,230.91918 c -5.41246,0.8866 -14.09765,-10.34115 -18.35799,-16.84246 6.41204,-9.31295 16.4348,-12.97607 29.1777,-12.3829 -2.02951,9.86207 -4.3716,28.16913 -10.81971,29.22536 z"
   id="path1186"
   sodipodi:nodetypes="sccs" /><path
   style="fill:#e55765;fill-opacity:1;stroke:#000000;stroke-width:6.33882;stroke-linecap:round;stroke-linejoin:round;stroke-miterlimit:4;stroke-dasharray:none;stroke-opacity:1"
   d="m 236.91558,251.88344 c 30.04271,69.08017 74.42109,-12.18517 65.79029,-32.18922"
   id="path1188"
   sodipodi:nodetypes="cc" /><path
   id="path1190"
   style="fill:#faa9b0;fill-opacity:1;stroke:#000000;stroke-width:4.22586;stroke-linecap:round;stroke-linejoin:round;stroke-miterlimit:4;stroke-dasharray:none;stroke-opacity:1"
   d="m 291.64327,240.93207 c -15.36402,0.023 -36.84854,5.31656 -46.51562,25.22816 31.78526,34.24206 51.49769,-12.37358 54.30734,-24.75755 -2.31149,-0.29797 -4.94653,-0.47478 -7.79172,-0.47061 z m 7.79172,0.47061 c -12.87525,26.66377 -26.16193,51.89589 -54.40668,25.15717 30.00861,36.48614 50.06083,-9.56487 54.40668,-25.15717 z"
   sodipodi:nodetypes="sccsccc" /><path
   style="fill:none;stroke:#000000;stroke-width:6.33882;stroke-linecap:round;stroke-linejoin:round;stroke-miterlimit:4;stroke-dasharray:none;stroke-opacity:1"
   d="m 219.40916,247.00627 c 34.68851,12.96369 87.75885,-31.40566 93.88527,-38.82475"
   id="path1192"
   sodipodi:nodetypes="cc" /><path
   style="fill:#f3f2f7;fill-opacity:1;stroke:#000000;stroke-width:6.33882;stroke-linecap:round;stroke-linejoin:round;stroke-miterlimit:4;stroke-dasharray:none;stroke-opacity:1"
   d="m 338.48764,78.997787 c -3.82578,14.267939 -9.08367,27.982483 -20.37432,39.365793 10.884,-1.14007 20.98433,3.77645 30.36179,14.27969 7.72921,-20.87308 0.9814,-37.830157 -9.98747,-53.645483 z"
   id="path1194"
   sodipodi:nodetypes="cccc" /><path
   sodipodi:nodetypes="cccc"
   id="path1196"
   d="m 197.77836,78.997787 c 1.42462,17.952097 0.89155,39.034933 10.2048,56.285603 -7.0033,6.0985 -20.30014,9.23968 -31.10521,7.03814 2.81274,-26.66869 13.02972,-49.140407 20.90041,-63.323743 z"
   style="fill:#f3f2f7;fill-opacity:1;stroke:#000000;stroke-width:6.33882;stroke-linecap:round;stroke-linejoin:round;stroke-miterlimit:4;stroke-dasharray:none;stroke-opacity:1" /><path
   style="fill:#000000;fill-rule:nonzero;stroke:none;stroke-width:4.22586;stroke-linecap:round;stroke-linejoin:miter;stroke-miterlimit:4;stroke-dasharray:none;stroke-opacity:1"
   d="m 187.39905,255.68523 c -0.15678,-0.25421 -0.22793,-1.23014 -0.94117,-1.52387 v 0 c -1.62768,-0.67033 -8.18625,0.93665 -14.28894,3.46631 v 0 c -5.36707,2.22476 -9.32912,4.65798 -12.883,7.09984 v 2e-5 c -4.55449,3.12943 -8.38301,6.85159 -11.71365,11.08987 v 0 c -0.71935,0.91539 -1.41744,1.85753 -2.09565,2.82579 v 0 c -3.57862,5.10923 -6.34357,10.9469 -8.10474,14.6434 2.53635,-3.75599 5.95654,-8.14165 10.28837,-12.90043 v 0 c 0.76875,-0.84451 1.54173,-1.66537 2.32011,-2.46173 v 0 c 3.59309,-3.67612 7.38281,-6.91851 11.65251,-9.68264 v -3e-5 c 3.30163,-2.13745 7.337,-3.93653 12.40923,-5.67141 v 0 c 5.89537,-2.01643 12.18349,-3.6218 13.30617,-5.09533 v 0 c 0.46455,-0.60974 0.0418,-1.4914 0.0507,-1.78979 z"
   id="path1198"
   sodipodi:nodetypes="cc" /><path
   sodipodi:nodetypes="cc"
   id="path1200"
   d="m 204.68183,272.69304 c 0.002,-0.27211 0.39858,-1.22951 -0.0147,-1.74422 v 0 c -0.90474,-1.12572 -5.21748,-1.67403 -10.01543,-0.1565 v 0 c -3.96416,1.25384 -7.11136,3.42987 -9.54713,5.44139 v 0 c -3.92719,3.24318 -6.69896,7.32508 -8.3881,11.52761 v 0 c -1.62472,4.04219 -1.99011,8.04356 -2.18288,10.48818 0.88279,-2.5872 2.3677,-5.63767 4.66966,-9.21457 v 0 c 2.24968,-3.49572 5.07322,-6.84983 8.53512,-9.4965 v 0 c 2.18976,-1.67413 5.05541,-3.10749 8.29238,-3.90514 h 2e-5 c 3.78639,-0.93297 7.11479,-0.56656 8.07214,-1.29998 v 0 c 0.49257,-0.37735 0.47835,-1.36806 0.5793,-1.64027 z"
   style="fill:#000000;fill-rule:nonzero;stroke:none;stroke-width:4.22586;stroke-linecap:round;stroke-linejoin:miter;stroke-miterlimit:4;stroke-dasharray:none;stroke-opacity:1" /><path
   style="fill:#000000;fill-rule:nonzero;stroke:none;stroke-width:4.22586;stroke-linecap:round;stroke-linejoin:miter;stroke-miterlimit:4;stroke-dasharray:none;stroke-opacity:1"
   d="m 182.12028,234.15865 c -0.12214,-0.27232 -0.0168,-1.26077 -0.7318,-1.63421 v 0 c -1.51603,-0.79159 -8.15815,-0.11386 -13.68737,1.347 v 0 c -4.95293,1.30866 -8.42696,3.01683 -11.49739,4.87945 v 0 c -3.9202,2.37811 -7.10764,5.51367 -9.87889,9.24316 v 0 c -0.59956,0.80687 -1.18221,1.64534 -1.7497,2.514 v 0 c -2.94156,4.50272 -5.41277,10.13791 -6.97898,13.59961 2.3485,-3.56346 5.49114,-7.71391 9.20318,-11.90873 v 0 c 0.6592,-0.74491 1.31613,-1.45961 1.97241,-2.14326 v 0 c 3.03008,-3.15642 6.09713,-5.71147 9.56604,-7.65735 v 0 c 2.7015,-1.51539 6.00279,-2.57354 10.53498,-3.46253 h 2e-5 c 5.23163,-1.02618 11.59655,-1.7509 12.96328,-3.00946 v 0 c 0.5923,-0.54543 0.23636,-1.473 0.28422,-1.76768 z"
   id="path1202"
   sodipodi:nodetypes="cc" /><path
   sodipodi:nodetypes="cc"
   id="path1204"
   d="m 344.91285,194.51338 c 0.27057,0.12615 0.89717,0.85739 1.61692,0.76677 v 0 c 1.61779,-0.20369 5.31745,-4.07453 10.49336,-8.19932 5.63947,-4.49419 11.38513,-8.04853 16.76486,-10.35275 h 2e-5 c 7.36728,-3.15552 14.74028,-5.11536 21.69961,-6.28565 v 0 c 7.00788,-1.17847 12.5357,-1.56034 16.80068,-1.49913 -3.87043,-0.67309 -10.06157,-1.6442 -17.10262,-1.27847 v 0 c -7.34174,0.38136 -15.1401,1.9839 -23.01873,5.16066 v 0 c -5.73393,2.31199 -12.16134,5.27893 -18.47741,9.86885 -5.81833,4.22817 -9.62175,8.5801 -9.70515,10.2849 v 0 c -0.0362,0.739 0.77534,1.28545 0.92846,1.53414 z"
   style="fill:#000000;fill-rule:nonzero;stroke:none;stroke-width:6.33882;stroke-linecap:round;stroke-linejoin:miter;stroke-miterlimit:4;stroke-dasharray:none;stroke-opacity:1" /><path
   style="fill:#000000;fill-rule:nonzero;stroke:none;stroke-width:4.22586;stroke-linecap:round;stroke-linejoin:miter;stroke-miterlimit:4;stroke-dasharray:none;stroke-opacity:1"
   d="m 349.56179,213.64548 c 0.23713,0.17955 0.65955,1.0664 1.4196,1.08041 v 0 c 1.73606,0.0318 6.61656,-3.60539 11.56509,-6.89353 v 0 c 4.18544,-2.78112 7.86885,-4.9404 11.29842,-6.45436 v 0 c 4.45552,-1.96685 9.01891,-3.59229 13.6797,-5.07372 h 3e-5 c 1.01338,-0.32209 2.04016,-0.64004 3.0781,-0.95451 v 0 c 4.83078,-1.46357 12.08707,-3.51496 14.89884,-4.1684 -3.59308,0.24058 -9.94922,0.5513 -15.52478,1.44546 v 0 c -1.09212,0.17517 -2.17323,0.36723 -3.2438,0.57723 v 0 c -4.94261,0.9695 -9.76684,2.34035 -14.5371,4.28307 v 0 c -3.71685,1.51371 -7.74251,3.19824 -12.40708,5.88328 v 0 c -5.33046,3.06832 -10.38562,6.92036 -10.86104,8.6067 v 0 c -0.20813,0.73805 0.52807,1.39026 0.63402,1.66837 z"
   id="path1206"
   sodipodi:nodetypes="cc" /><path
   sodipodi:nodetypes="cc"
   id="path1208"
   d="m 351.16728,232.05839 c 0.20283,0.22012 0.38356,1.20629 1.21414,1.32178 v 0 c 1.84942,0.25711 7.75402,-2.63335 12.37443,-4.58344 v 0 c 4.05394,-1.71103 7.1116,-2.6853 9.96606,-3.05959 v 0 c 3.66209,-0.4802 7.39537,-0.4262 11.5012,-0.0795 v 0 c 0.89007,0.0751 1.80209,0.16457 2.73598,0.26677 v 0 c 4.34807,0.47515 11.37941,1.49912 14.14061,2.04152 -3.20613,-1.20547 -8.97664,-3.53133 -13.6195,-4.78643 v 0 c -0.93488,-0.25273 -1.85775,-0.48135 -2.76938,-0.68406 h -2e-5 c -4.2021,-0.93433 -8.28499,-1.34967 -12.45639,-0.95833 h -3e-5 c -3.28026,0.30775 -6.7834,0.84972 -11.34619,2.43656 v 0 c -5.05288,1.75727 -11.08853,4.79782 -12.00293,6.30897 v 0 c -0.43477,0.71848 0.21874,1.47953 0.26202,1.77566 z"
   style="fill:#000000;fill-rule:nonzero;stroke:none;stroke-width:4.22586;stroke-linecap:round;stroke-linejoin:miter;stroke-miterlimit:4;stroke-dasharray:none;stroke-opacity:1" /><path
   style="fill:#ff964a;fill-opacity:1;stroke:#000000;stroke-width:6.33882;stroke-linecap:round;stroke-linejoin:round;stroke-miterlimit:4;stroke-dasharray:none;stroke-opacity:1"
   d="m 369.48764,367.87305 c 23.22753,54.85097 31.23914,109.1884 83.65605,109.34177 21.48076,0.0629 35.12451,-27.60264 33.65455,-81.39635 -0.49827,-18.23429 3.26984,-32.45451 4.68158,-45.11619 l -66.08741,2.79524 c 0,0 -26.95408,74.27348 -10.78164,88.649"
   id="path1210"
   sodipodi:nodetypes="cssccc" /><g
   id="g1218"
   transform="matrix(2.1129362,0,0,2.1129362,473.84261,823.74259)"><path
     id="path1212"
     style="fill:#f3f2f7;fill-opacity:1;stroke:#000000;stroke-width:3;stroke-linecap:round;stroke-linejoin:round;stroke-miterlimit:4;stroke-dasharray:none;stroke-opacity:1"
     d="m 1.1298905,-312.76866 c -12.5784825,-0.27951 -22.9424285,29.39108 -26.7720105,43.24699 -0.788122,0.89249 -1.434915,1.88531 -1.892906,2.97087 -1.90857,4.52381 -3.127988,9.96471 -3.450435,14.18052 l -0.371552,-1.21233 c -0.400903,-7.95126 -19.329105,-15.08581 -21.715985,-3.34088 -1.44965,7.13316 8.753266,6.74885 10.624155,9.02064 8.85631,18.77885 13.280824,11.48549 16.102849,16.30329 0.318531,1.37656 -2.227434,7.73132 -0.467627,10.69093 11.178897,8.19181 26.27429402,2.22886 37.685037,2.40502 1.331264,-5.10559 -0.27935,-9.78054 -1.1771905,-15.6161 0,0 6.6919645,-13.90754 6.6626435,-17.60358 -0.14156,-17.84587 -7.1140315,-20.42265 -15.2409305,-19.0629 -1.349428,0.22576 -2.662124,0.6555 -3.926377,1.24486 -0.877977,-1.45391 -2.061546,-2.58109 -3.441649,-3.40701 5.431446,-17.36924 20.5831105,-34.48749 10.78177,-39.00485 -1.148625,-0.52941 -2.282938,-0.79066 -3.399792,-0.81547 z"
     sodipodi:nodetypes="scsccscccccssccss" /><path
     sodipodi:nodetypes="cssc"
     id="path1214"
     d="m -2.8104385,-269.54133 c -4.0985,-10.47665 -19.1305975,-7.18595 -24.6603045,1.20845 -4.741161,7.19735 -6.288762,17.78268 -3.803896,20.30676 2.883182,2.92868 11.42377,6.7404 15.368,1.13589"
     style="fill:#f3f2f7;fill-opacity:1;stroke:#000000;stroke-width:3;stroke-linecap:round;stroke-linejoin:round;stroke-miterlimit:4;stroke-dasharray:none;stroke-opacity:1" /><path
     sodipodi:nodetypes="cssc"
     id="path1216"
     d="m 16.306052,-252.64798 c -0.14156,-17.84587 -7.7439024,-20.08513 -15.97617051,-19.73139 -11.40496149,0.49007 -22.38534549,23.36849 -16.69753049,28.2172 5.137317,4.37943 14.9672605,7.53357 21.5084805,-6.93755"
     style="fill:#f3f2f7;fill-opacity:1;stroke:#000000;stroke-width:3;stroke-linecap:round;stroke-linejoin:round;stroke-miterlimit:4;stroke-dasharray:none;stroke-opacity:1" /></g><path
   sodipodi:nodetypes="cc"
   id="path1220"
   d="m 334.42358,522.02889 c -16.84094,0.80062 -59.20393,-11.18564 -72.28459,-19.76529"
   style="fill:none;stroke:#f5812d;stroke-width:4.22586;stroke-linecap:round;stroke-linejoin:round;stroke-miterlimit:4;stroke-dasharray:none;stroke-opacity:1" /><path
   style="fill:none;stroke:#000000;stroke-width:6.33882;stroke-linecap:round;stroke-linejoin:round;stroke-miterlimit:4;stroke-dasharray:none;stroke-opacity:1"
   d="m 288.89567,341.75113 c 0,0 -0.24494,27.65745 0.51369,40.78788 1.84718,31.97159 5.46897,72.45156 2.73688,105.2247 -3.30365,39.62954 -19.67963,66.65667 -21.49436,100.98353"
   id="path1222"
   sodipodi:nodetypes="cssc" /><path
   style="fill:#f3f2f7;fill-opacity:1;stroke:#000000;stroke-width:4.22586;stroke-linecap:round;stroke-linejoin:round;stroke-miterlimit:4;stroke-dasharray:none;stroke-opacity:1"
   d="m 292.09466,343.72641 c -2.94158,-2.07587 -16.54755,8.30357 -17.60563,10.78466 -2.14274,5.02446 3.832,14.72061 9.08824,13.10636 2.78715,-0.85596 12.31148,-21.21355 8.51739,-23.89102 z"
   id="path1224"
   sodipodi:nodetypes="ssss" /><path
   style="fill:none;stroke:#000000;stroke-width:6.33882;stroke-linecap:round;stroke-linejoin:round;stroke-miterlimit:4;stroke-dasharray:none;stroke-opacity:1"
   d="m 346.40362,587.47926 c -1.65246,-35.88077 6.36152,-62.52633 12.86567,-67.75461"
   id="path1226"
   sodipodi:nodetypes="cc" /><path
   sodipodi:nodetypes="cscc"
   id="path1228"
   d="m 201.36181,179.02467 c -0.81572,0.082 0.44978,3.6295 2.94996,6.03863 4.75332,4.58027 8.68567,4.55587 8.92172,4.05766 0.36806,-2.657 -6.40585,-11.06674 -11.87168,-10.09629 z"
   style="fill:#f3f2f7;fill-opacity:1;stroke:#000000;stroke-width:0.559927;stroke-linecap:round;stroke-linejoin:round;stroke-miterlimit:4;stroke-dasharray:none;stroke-opacity:1;paint-order:stroke markers fill" /><path
   sodipodi:nodetypes="ccc"
   id="path1230"
   d="m 289.23529,152.79221 c -2.20427,4.04414 12.34954,9.12839 13.97263,6.91361 0.85754,-6.93204 -7.77985,-13.57124 -13.97263,-6.91361 z"
   style="fill:#f3f2f7;fill-opacity:1;stroke:#000000;stroke-width:0.559927;stroke-linecap:round;stroke-linejoin:round;stroke-miterlimit:4;stroke-dasharray:none;stroke-opacity:1;paint-order:stroke markers fill" /><g
   transform="matrix(2.1770114,0.19888278,-0.19888278,2.1770114,-76.874733,-602.34857)"
   aria-label="Crash Handicat"
   id="g1287"
   style="font-size:14.236px;line-height:0.5;font-family:'Atkinson Hyperlegible';-inkscape-font-specification:'Atkinson Hyperlegible, Normal';letter-spacing:0px;word-spacing:0.176586px;fill:#f88735;fill-opacity:1;stroke-width:0.153552"><path
     d="m 81.273042,431.36774 c 0.741287,1.50745 2.02751,2.4455 3.593769,2.43677 l -0.131883,-1.23601 c -0.974016,-0.0128 -1.868432,-0.50897 -2.414974,-1.62039 -0.785261,-1.59687 -0.06059,-3.34927 2.085599,-4.40466 2.222839,-1.09309 3.976085,-0.49574 4.717372,1.0117 0.546542,1.11142 0.380638,2.12899 -0.197396,2.88916 l 0.89838,0.85908 c 0.950193,-1.19701 1.043241,-2.74986 0.339647,-4.18065 -1.187316,-2.41447 -3.703897,-3.11236 -6.361084,-1.80569 -2.593313,1.27527 -3.729309,3.61068 -2.52943,6.05069 z"
     style="fill:#f88735;fill-opacity:1;stroke-width:0.153552"
     id="path1261" /><path
     d="m 90.073122,432.74608 -6.248808,3.288 0.556838,1.05827 2.68346,-1.41199 c 1.662989,-0.87503 2.86838,-0.78539 3.769927,0.92799 l 1.096062,-0.57672 c -0.550209,-1.04567 -1.445258,-1.52381 -2.433178,-1.56702 l 0.98007,-0.95002 z"
     style="fill:#f88735;fill-opacity:1;stroke-width:0.153552"
     id="path1263" /><path
     d="m 86.793087,441.9276 c 0.602664,1.08201 1.335985,1.52092 2.165649,1.54767 l -0.707171,0.71979 0.533392,0.95764 c 0.522193,-0.4375 1.18261,-0.91941 2.207951,-1.5068 l 1.43576,-0.81599 c 1.721811,-0.97532 2.0842,-2.13858 1.135177,-3.84244 -0.616517,-1.10689 -1.676354,-1.72243 -2.808597,-1.53177 l 0.262614,1.17365 c 0.673173,-0.1957 1.304004,0.0885 1.719634,0.83467 0.554174,0.99496 0.212087,1.75583 -0.853399,2.3004 -1.692265,-2.36538 -3.029508,-3.77153 -4.49707,-2.95413 -1.131763,0.63038 -1.245094,1.94823 -0.59394,3.11731 z m 4.306224,0.388 -0.385546,0.21474 c -1.455125,0.81048 -2.422393,0.12709 -2.962712,-0.843 -0.41563,-0.74621 -0.279463,-1.40869 0.305075,-1.73426 0.845713,-0.47105 1.791262,0.58294 3.043183,2.36252 z"
     style="fill:#f88735;fill-opacity:1;stroke-width:0.153552"
     id="path1265" /><path
     d="m 90.735103,445.34211 c -0.800213,1.02206 -0.630191,2.39488 -0.0047,3.44734 0.749122,1.26051 2.13,2.07932 3.280365,1.39565 2.582201,-1.53461 -0.920359,-4.66952 0.548191,-5.54229 0.52623,-0.31274 1.164081,0.11964 1.535006,0.74378 0.341833,0.57518 0.465691,1.31302 0.09982,1.81199 l 0.929469,0.75588 c 0.626225,-0.86898 0.450542,-2.05627 -0.116754,-3.01083 -0.698212,-1.17484 -1.988808,-1.98107 -3.077983,-1.33377 -2.423108,1.44007 1.09169,4.56771 -0.572667,5.55684 -0.550706,0.32729 -1.327442,-0.1716 -1.756551,-0.89363 -0.400017,-0.67309 -0.52087,-1.5452 0.09207,-2.15788 z"
     style="fill:#f88735;fill-opacity:1;stroke-width:0.153552"
     id="path1267" /><path
     d="m 101.12131,447.29245 -8.031906,5.09136 0.640231,1.01 3.234403,-2.05026 c 1.274524,-0.80791 2.34097,-0.64117 2.958336,0.33276 0.731696,1.15429 0.02518,1.82126 -0.888628,2.40051 l -3.47488,2.2027 0.640231,1.01 3.775475,-2.39324 c 1.358688,-0.86126 1.949168,-1.97719 1.034548,-3.42005 -0.64023,-1.01 -1.438934,-1.31275 -2.217463,-1.2912 l 2.969883,-1.88258 z"
     style="fill:#f88735;fill-opacity:1;stroke-width:0.153552"
     id="path1269" /><path
     d="m 107.4001,456.96622 -7.758478,5.49903 0.773818,1.09176 3.51919,-2.49432 2.88123,4.06507 -3.51919,2.49433 0.77382,1.09176 7.75848,-5.49904 -0.77382,-1.09176 -3.29852,2.33791 -2.88123,-4.06507 3.29852,-2.33791 z"
     style="fill:#f88735;fill-opacity:1;stroke-width:0.153552"
     id="path1271" /><path
     d="m 106.37588,472.04909 c 0.7507,0.9851 1.53908,1.31504 2.36408,1.2233 l -0.59739,0.8132 0.66441,0.87187 c 0.45452,-0.50745 1.03953,-1.07854 1.97071,-1.80604 l 1.30484,-1.01225 c 1.56527,-1.2107 1.7582,-2.41374 0.57608,-3.96499 -0.76795,-1.00774 -1.90468,-1.46598 -2.9982,-1.11593 l 0.42717,1.12425 c 0.63842,-0.28962 1.3033,-0.0983 1.82102,0.58113 0.69029,0.90584 0.46011,1.70769 -0.51691,2.39852 -2.01204,-2.10011 -3.536,-3.30137 -4.87212,-2.28319 -1.03039,0.78521 -0.95478,2.10577 -0.14369,3.17013 z m 4.31757,-0.22956 -0.35101,0.26749 c -1.32479,1.00955 -2.37957,0.47096 -3.0526,-0.41223 -0.51772,-0.67938 -0.47734,-1.3545 0.0548,-1.76005 0.76997,-0.58674 1.85605,0.32176 3.34877,1.90479 z"
     style="fill:#f88735;fill-opacity:1;stroke-width:0.153552"
     id="path1273" /><path
     d="m 115.35326,471.85556 -5.48428,4.44761 0.75323,0.92878 2.97433,-2.41211 c 1.17204,-0.95049 2.25064,-0.90876 2.97696,-0.0131 0.86083,1.06147 0.23658,1.806 -0.60375,2.48749 l -3.19547,2.59145 0.75322,0.92878 3.4719,-2.81562 c 1.24944,-1.01327 1.70629,-2.19023 0.63025,-3.51707 -0.75322,-0.92879 -1.58169,-1.13672 -2.35244,-1.02486 l 0.632,-0.91578 z"
     style="fill:#f88735;fill-opacity:1;stroke-width:0.153552"
     id="path1275" /><path
     d="m 116.24532,484.26403 c 0.72613,0.84008 1.58571,1.09439 2.43582,0.9241 l -0.60296,0.93515 0.73544,0.85085 c 0.77875,-0.99301 1.50036,-1.61674 1.85578,-1.92395 l 5.18051,-4.47781 -0.78199,-0.90471 -2.69257,2.32735 c 0.28077,-0.8072 0.15356,-1.69454 -0.57257,-2.53462 -1.05196,-1.21705 -3.00607,-1.40968 -4.76163,0.10775 -1.76633,1.52674 -1.8478,3.47885 -0.79583,4.69589 z m 4.98681,-3.89642 c 0.7913,0.91547 0.58024,2.15165 -0.69065,3.25015 -1.27089,1.09851 -2.5246,1.12841 -3.3159,0.21294 -0.7913,-0.91548 -0.58024,-2.15165 0.69065,-3.25016 1.2709,-1.0985 2.5246,-1.12841 3.3159,-0.21293 z"
     style="fill:#f88735;fill-opacity:1;stroke-width:0.153552"
     id="path1277" /><path
     d="m 124.97122,483.24223 -0.70642,0.64088 0.66002,0.72751 -4.52317,4.10358 0.8035,0.88565 5.22958,-4.74446 z m 2.05285,0.27118 c 0.33479,0.36902 0.89785,0.39641 1.26687,0.0616 0.35848,-0.32522 0.38586,-0.88827 0.0511,-1.2573 -0.32522,-0.35847 -0.88827,-0.38586 -1.24675,-0.0606 -0.36903,0.3348 -0.39641,0.89785 -0.0712,1.25633 z"
     style="fill:#f88735;fill-opacity:1;stroke-width:0.153552"
     id="path1279" /><path
     d="m 124.46275,493.34444 c 0.86214,0.90892 2.06277,1.20246 3.0863,0.95761 l -0.46517,-1.06963 c -0.5977,0.13526 -1.29837,-0.0242 -1.82741,-0.58198 -0.72498,-0.76432 -0.78126,-2.06482 0.50983,-3.28945 1.29108,-1.22463 2.55635,-1.09051 3.29112,-0.31585 0.49965,0.52676 0.65238,1.22562 0.45477,1.84473 l 1.04357,0.52099 c 0.31655,-0.92814 0.19671,-2.10948 -0.67523,-3.02873 -1.44016,-1.51832 -3.48744,-1.40121 -5.01609,0.0487 -1.5493,1.46955 -1.79287,3.44688 -0.40169,4.91356 z"
     style="fill:#f88735;fill-opacity:1;stroke-width:0.153552"
     id="path1281" /><path
     d="m 128.83776,497.83409 c 0.87827,0.87327 1.70434,1.09237 2.50907,0.88875 l -0.48065,0.88722 0.77731,0.77289 c 0.38092,-0.5648 0.8824,-1.21048 1.70542,-2.05841 l 1.15427,-1.18106 c 1.38514,-1.41325 1.41186,-2.63136 0.0288,-4.00651 -0.89846,-0.89335 -2.08714,-1.19196 -3.12257,-0.69575 l 0.5768,1.05533 c 0.59285,-0.37415 1.27765,-0.27544 1.88335,0.32682 0.8076,0.80301 0.68916,1.62879 -0.18429,2.44666 -2.28016,-1.80545 -3.95398,-2.78718 -5.13842,-1.59597 -0.91342,0.91865 -0.65806,2.21649 0.29087,3.16003 z m 4.2457,-0.81742 -0.31117,0.31294 c -1.1744,1.18112 -2.29288,0.79172 -3.0803,0.009 -0.6057,-0.60226 -0.65795,-1.27656 -0.18619,-1.75103 0.68256,-0.68646 1.88261,0.0651 3.57766,1.4293 z"
     style="fill:#f88735;fill-opacity:1;stroke-width:0.153552"
     id="path1283" /><path
     d="m 137.22707,495.94601 -0.65593,0.69247 0.86817,0.82236 -2.98597,3.15227 c -1.00837,1.06454 -0.98659,1.49696 -0.005,2.42702 l 0.65112,0.61677 0.72447,-0.76481 -0.46509,-0.44056 c -0.4961,-0.46992 -0.39983,-0.63365 0.0995,-1.16075 l 2.8489,-3.00758 0.99219,0.93985 0.65594,-0.69247 -0.99219,-0.93984 1.22375,-1.29192 -0.86816,-0.82236 -1.22376,1.29192 z"
     style="fill:#f88735;fill-opacity:1;stroke-width:0.153552"
     id="path1285" /></g><circle
   style="fill:#ffffff;fill-opacity:0.267442;stroke-width:1.06185"
   id="circle6"
   r="127.42189"
   cy="159.12683"
   cx="-213.75523"
   class="st0" />
<g
   transform="translate(-313.75524,36)"
   id="g35">
						<path
   id="path33"
   d="M 124,144.6 V 163 h 4 v 0 c 39.8,0 72,32.2 72,72 v 9 H 0 v -9 c 0,-39.8 32.2,-72 72,-72 v 0 h 4 V 144.6 C 58.8,136.4 46.4,119.7 44.3,99.9 38.5,99.1 34,94.1 34,88 V 74 C 34,68.1 38.3,63.1 44,62.2 V 56 56 C 44,25.1 69.1,0 100,0 v 0 0 c 30.9,0 56,25.1 56,56 v 6.2 c 5.7,1 10,5.9 10,11.8 v 14 c 0,6.1 -4.5,11.1 -10.3,11.9 -2.1,19.8 -14.5,36.5 -31.7,44.7 z"
   class="st7" />
					</g><g
   style="fill:#d0a279;fill-opacity:1"
   transform="translate(-313.75524,36)"
   id="g49"
   mask="url(#mask-6_1_)"
   class="st9">
						<g
   style="fill:#d0a279;fill-opacity:1"
   transform="translate(-32)"
   id="Color">
							<rect
   style="fill:#d0a279;fill-opacity:1"
   y="0"
   x="0"
   id="rect46"
   height="244"
   width="264"
   class="st10" />
						</g>
					</g><path
   transform="translate(-313.75524,36)"
   mask="url(#mask-6_2_)"
   d="m 156,79 v 23 c 0,30.9 -25.1,56 -56,56 -30.9,0 -56,-25.1 -56,-56 V 79 94 c 0,30.9 25.1,56 56,56 30.9,0 56,-25.1 56,-56 z"
   class="st12"
   id="Neck-Shadow" /><g
   transform="translate(-345.75524,170)"
   id="Clothes">
						<path
   id="path62"
   d="m 166,29.3 c 37,3 66,34 66,71.8 V 110 H 32 v -8.9 C 32,63 61.6,31.8 99,29.2 c 0,0.4 0,0.7 0,1.1 0,11.9 15,21.5 33.5,21.5 18.5,0 33.5,-9.6 33.5,-21.5 0,-0.3 0,-0.7 0,-1 z"
   class="st0" />
					</g><g
   style="fill:#3cbb23;fill-opacity:1"
   transform="translate(-345.75524,170)"
   id="g76"
   mask="url(#react-mask-952_1_)"
   class="st14">
						<rect
   style="fill:#3cbb23;fill-opacity:1"
   y="0"
   x="0"
   id="rect74"
   height="110"
   width="264"
   class="st2" />
					</g><g
   transform="translate(-345.75524,170)"
   mask="url(#react-mask-952_2_)"
   class="st16"
   id="Shadowy">
						<g
   id="g89"
   transform="translate(92,4)">
							<ellipse
   id="ellipse87"
   ry="26.9"
   rx="39.599998"
   cy="27.799999"
   cx="40.5"
   class="st17" />
						</g>
					</g><g
   style="fill:#d07758;fill-opacity:1"
   id="g123"
   transform="translate(-267.75524,134)">
						<g
   style="fill:#d07758;fill-opacity:1"
   id="Mouth">
							<path
   style="fill:#d07758;fill-opacity:1"
   id="path94"
   d="M 35.1,15.1 C 36.2,24.6 44.2,32 54,32 c 9.8,0 17.9,-7.4 18.9,-17 0.1,-0.8 -0.8,-2 -1.8,-2 -14.9,0 -26.3,0 -34,0 -1.1,0 -2.1,1.2 -2,2.1 z"
   class="st18" />
						</g>
						<defs
   id="defs100">
							<filter
   height="16"
   width="31"
   y="2"
   x="39"
   filterUnits="userSpaceOnUse"
   id="Adobe_OpacityMaskFilter_6_">
								<feColorMatrix
   id="feColorMatrix97"
   values="1 0 0 0 0  0 1 0 0 0  0 0 1 0 0  0 0 0 1 0"
   type="matrix" />
							</filter>
						</defs>
						<mask
   id="react-mask-934_1_"
   height="16"
   width="31"
   y="2"
   x="39"
   maskUnits="userSpaceOnUse">
							<g
   id="g103"
   class="st19">
								<path
   d="M 35.1,15.1 C 36.2,24.6 44.2,32 54,32 c 9.8,0 17.9,-7.4 18.9,-17 0.1,-0.8 -0.8,-2 -1.8,-2 -14.9,0 -26.3,0 -34,0 -1.1,0 -2.1,1.2 -2,2.1 z"
   class="st2"
   id="react-path-933_1_" />
							</g>
						</mask>
						<path
   style="fill:#d07758;fill-opacity:1"
   mask="url(#react-mask-934_1_)"
   d="m 44,2 h 21 c 2.8,0 5,2.2 5,5 v 6 c 0,2.8 -2.2,5 -5,5 H 44 c -2.8,0 -5,-2.2 -5,-5 V 7 c 0,-2.8 2.2,-5 5,-5 z"
   class="st20"
   id="Teeth" />
						<defs
   id="defs110">
							<filter
   height="22"
   width="32"
   y="24"
   x="38"
   filterUnits="userSpaceOnUse"
   id="Adobe_OpacityMaskFilter_7_">
								<feColorMatrix
   id="feColorMatrix107"
   values="1 0 0 0 0  0 1 0 0 0  0 0 1 0 0  0 0 0 1 0"
   type="matrix" />
							</filter>
						</defs>
						<mask
   id="react-mask-934_2_"
   height="22"
   width="32"
   y="24"
   x="38"
   maskUnits="userSpaceOnUse">
							<g
   id="g113"
   class="st21">
								<path
   d="M 35.1,15.1 C 36.2,24.6 44.2,32 54,32 c 9.8,0 17.9,-7.4 18.9,-17 0.1,-0.8 -0.8,-2 -1.8,-2 -14.9,0 -26.3,0 -34,0 -1.1,0 -2.1,1.2 -2,2.1 z"
   class="st2"
   id="react-path-933_2_" />
							</g>
						</mask>
						<g
   style="fill:#d07758;fill-opacity:1"
   mask="url(#react-mask-934_2_)"
   class="st22"
   id="Tongue">
							<g
   style="fill:#d07758;fill-opacity:1"
   id="g120"
   transform="translate(38,24)">
								<circle
   style="fill:#d07758;fill-opacity:1"
   id="circle116"
   r="11"
   cy="11"
   cx="11"
   class="st23" />
								<circle
   style="fill:#d07758;fill-opacity:1"
   id="circle118"
   r="11"
   cy="11"
   cx="21"
   class="st23" />
							</g>
						</g>
					</g><g
   id="g126"
   transform="translate(-241.75524,122)">
						<path
   d="m 16,8 c 0,4.4 5.4,8 12,8 v 0 c 6.6,0 12,-3.6 12,-8"
   class="st17"
   id="Nose" />
					</g><g
   id="g131"
   transform="translate(-269.75524,90)">
						<path
   d="M 16.2,22.4 C 18,18.6 22.2,16 27,16 c 4.8,0 9,2.6 10.8,6.4 0.6,1.1 -0.2,2 -1,1.4 -2.5,-2.1 -5.9,-3.4 -9.8,-3.4 -3.7,0 -7.1,1.2 -9.6,3.2 -0.9,0.7 -1.8,0 -1.2,-1.2 z"
   class="st24"
   id="Squint" />
						<path
   id="path129"
   d="M 74.2,22.4 C 76,18.6 80.2,16 85,16 c 4.8,0 9,2.6 10.8,6.4 0.6,1.1 -0.2,2 -1,1.4 -2.5,-2.1 -5.9,-3.4 -9.8,-3.4 -3.7,0 -7.1,1.2 -9.6,3.2 -0.9,0.7 -1.8,0 -1.2,-1.2 z"
   class="st24" />
					</g><path
   style="fill:#292018;fill-opacity:1"
   id="Eyebrow"
   class="st24"
   d="m -243.25524,88.1 c -5.8,0.3 -15.2,4.5 -15,10.3 0,0.2 0.3,0.3 0.4,0.1 2.8,-3 22.3,-5.9 29.2,-4.4 0.6,0.1 1.1,-0.5 0.7,-0.9 -3.3,-3.7 -10.1,-5.3 -15.3,-5.1" /><path
   style="fill:#292018;fill-opacity:1"
   class="st24"
   d="m -183.25524,88.1 c 5.8,0.3 15.2,4.5 15,10.3 0,0.2 -0.3,0.3 -0.4,0.1 -2.8,-3 -22.3,-5.9 -29.2,-4.4 -0.6,0.1 -1.1,-0.5 -0.7,-0.9 3.3,-3.7 10.1,-5.3 15.3,-5.1"
   id="path134" /><g
   transform="translate(-346.75524)"
   id="Short-Hair">
								<path
   id="path148"
   d="m 183.7,38.9 c 5.4,-5 6.7,-15 3.6,-21.5 -3.8,-8 -11.4,-9 -18.7,-5.5 -6.9,3.3 -13.1,4.4 -20.6,2.8 C 140.7,13.2 133.9,10.4 126.4,10 114,9.3 102,13.9 93.6,23.1 c -1.6,1.8 -2.9,3.8 -4.1,5.8 -1,1.6 -2.1,3.4 -2.5,5.3 -0.2,0.9 0.2,3.1 -0.3,3.8 -0.5,0.8 -2.3,1.5 -3.1,2.1 -1.6,1.2 -2.9,2.5 -4.2,4 -2.7,3.2 -4.1,6.6 -5.4,10.6 -4.1,13.2 -4.5,29 0.9,42 0.7,1.7 2.9,5.4 4.2,1.6 0.3,-0.7 -0.3,-3.2 -0.3,-3.9 0,-2.7 1.5,-20.7 8,-30.8 2.1,-3.3 12,-15.6 14,-15.7 1.1,1.7 11.9,12.5 39.9,11.2 12.7,-0.6 22.4,-6.3 24.7,-8.7 1,5.5 13,13.8 14.8,17.2 5.3,9.8 6.4,30.3 8.4,30.3 2,0 3.5,-5.2 3.9,-6.2 3.1,-7.4 3.6,-16.6 3.3,-24.6 C 195.5,57 191.3,45.9 183.7,38.9 Z"
   class="st27" />
							</g><g
   transform="translate(-346.75524)"
   id="g164"
   mask="url(#react-mask-924_1_)"
   class="st29">
								<g
   id="g162">
									<rect
   style="fill:#292018;fill-opacity:1"
   y="-67.670197"
   x="1.8731638"
   id="rect160"
   height="280"
   width="264"
   class="st30" />
								</g>
							</g><g
   inkscape:export-ydpi="250"
   inkscape:export-xdpi="250"
   clip-path="url(#clipPath4045)"
   id="g1734"
   transform="matrix(4.5701913,0,0,4.5701913,-675.77143,-1286.6239)"><path
     inkscape:export-ydpi="300"
     inkscape:export-xdpi="300"
     d="m 249.95451,228.03771 c -5.22489,0.0345 -9.44235,4.27973 -9.44238,9.50473 -6e-5,5.2494 4.25531,9.50496 9.50471,9.5051 3.64499,2e-5 6.97238,-2.08675 8.55972,-5.36468 -0.9953,-0.0141 -2.92248,0.0638 -3.95616,0.79192 -1.18249,0.9849 -2.62697,1.56943 -4.14514,1.56948 -3.54149,0 -6.41249,-2.96403 -6.41249,-6.62041 -2e-5,-3.6564 2.871,-6.62043 6.41249,-6.62043 1.03363,6e-5 2.03194,0.29643 2.96792,0.75186 0.48063,0.23385 1.52496,1.28486 4.23508,1.54263 0.011,-0.001 0.0276,0.002 0.0387,5.2e-4 0.22997,-0.0285 0.58069,-0.0833 0.6569,-0.0841 -1.65938,-3.06296 -4.8655,-4.97673 -8.35709,-4.9767 -0.0209,-6e-5 -0.0416,-6e-5 -0.0624,0 z"
     style="fill:#ff8d3a;fill-opacity:1;stroke:none;stroke-width:0.16791;stroke-linejoin:round;stroke-miterlimit:4;stroke-dasharray:none;stroke-opacity:1;paint-order:markers fill stroke"
     id="path1671"
     sodipodi:nodetypes="csccccscscscccc" /><path
     inkscape:export-ydpi="300"
     inkscape:export-xdpi="300"
     id="path1673"
     style="fill:#6352d8;fill-opacity:1;stroke:none;stroke-width:0.16791;stroke-linejoin:round;stroke-miterlimit:4;stroke-dasharray:none;stroke-opacity:1;paint-order:markers fill stroke"
     d="m 266.17502,228.03771 c 5.22489,0.0345 9.44235,4.27973 9.44238,9.50473 6e-5,5.2494 -4.25532,9.50496 -9.50472,9.5051 -3.2948,2e-5 -6.32597,-1.70295 -8.05036,-4.45117 l 0.51424,-0.91351 c 2.20057,0.16414 2.8633,0.73425 2.93258,0.79192 1.18248,0.9849 2.62696,1.56943 4.14512,1.56948 3.54151,0 6.41251,-2.96403 6.41251,-6.62041 0,-3.6564 -2.871,-6.62043 -6.41251,-6.62043 -1.03362,6e-5 -2.05299,0.25551 -2.96792,0.75186 -2.0715,1.12381 -1.58767,1.63198 -4.97363,1.53917 1.64661,-3.1096 4.87806,-5.05674 8.39993,-5.05671 0.0207,-6e-5 0.0416,-6e-5 0.0623,0 z"
     sodipodi:nodetypes="sscccccscscccs" /><circle
     r="0.92153281"
     inkscape:export-ydpi="300"
     inkscape:export-xdpi="300"
     cy="237.44571"
     cx="269.16745"
     id="circle1675"
     style="fill:#2d2565;fill-opacity:1;stroke:none;stroke-width:0.194923;stroke-linejoin:round;stroke-miterlimit:4;stroke-dasharray:none;stroke-opacity:1;paint-order:markers fill stroke" /><circle
     r="0.92153281"
     inkscape:export-ydpi="300"
     inkscape:export-xdpi="300"
     style="fill:#2d2565;fill-opacity:1;stroke:none;stroke-width:0.194923;stroke-linejoin:round;stroke-miterlimit:4;stroke-dasharray:none;stroke-opacity:1;paint-order:markers fill stroke"
     id="circle1677"
     cx="267.05405"
     cy="239.64513" /><circle
     r="0.92153281"
     inkscape:export-ydpi="300"
     inkscape:export-xdpi="300"
     cy="237.47031"
     cx="264.97751"
     id="circle1679"
     style="fill:#2d2565;fill-opacity:1;stroke:none;stroke-width:0.194923;stroke-linejoin:round;stroke-miterlimit:4;stroke-dasharray:none;stroke-opacity:1;paint-order:markers fill stroke" /><circle
     r="0.92153281"
     inkscape:export-ydpi="300"
     inkscape:export-xdpi="300"
     cy="235.1972"
     cx="267.04175"
     id="circle1681"
     style="fill:#2d2565;fill-opacity:1;stroke:none;stroke-width:0.194923;stroke-linejoin:round;stroke-miterlimit:4;stroke-dasharray:none;stroke-opacity:1;paint-order:markers fill stroke" /><path
     inkscape:export-ydpi="300"
     inkscape:export-xdpi="300"
     d="m 250.22073,235.13258 c -0.55817,0 -1.00766,0.4495 -1.00766,1.00767 v 0.56523 h -0.56523 c -0.55818,0 -1.0073,0.44951 -1.0073,1.00769 0,0.55819 0.44912,1.00729 1.0073,1.00729 h 0.56523 v 0.56523 c 0,0.55817 0.44949,1.00768 1.00766,1.00768 0.55818,0 1.00769,-0.44951 1.00769,-1.00768 v -0.56523 h 0.56523 c 0.55817,0 1.00731,-0.4491 1.00731,-1.00729 0,-0.55818 -0.44914,-1.00769 -1.00731,-1.00769 h -0.56523 v -0.56523 c 0,-0.55817 -0.44951,-1.00767 -1.00769,-1.00767 z"
     style="fill:#2d2565;fill-opacity:1;stroke:none;stroke-width:0.194923;stroke-linejoin:round;stroke-miterlimit:4;stroke-dasharray:none;stroke-opacity:1;paint-order:markers fill stroke"
     id="path1683" /><g
     inkscape:export-ydpi="300"
     inkscape:export-xdpi="300"
     transform="matrix(0.73556329,0,0,0.73556329,224.24579,115.68053)"
     id="g1689"
     style="fill:#2d2565;fill-opacity:1"><rect
       style="opacity:1;fill:#2d2565;fill-opacity:1;stroke:none;stroke-width:0.264999;stroke-linejoin:round;stroke-miterlimit:4;stroke-dasharray:none;stroke-opacity:1;paint-order:markers fill stroke"
       id="rect1685"
       width="0.80319941"
       height="2.5277159"
       x="122.01527"
       y="120.5738"
       ry="0.40159971"
       transform="rotate(30)" /><rect
       transform="rotate(30)"
       ry="0.40159971"
       y="119.58161"
       x="123.73379"
       height="2.5277159"
       width="0.80319941"
       id="rect1687"
       style="opacity:1;fill:#2d2565;fill-opacity:1;stroke:none;stroke-width:0.264999;stroke-linejoin:round;stroke-miterlimit:4;stroke-dasharray:none;stroke-opacity:1;paint-order:markers fill stroke" /></g><g
     inkscape:export-ydpi="300"
     inkscape:export-xdpi="300"
     transform="translate(-0.30001831,82.905534)"
     id="g1709"><text
       xml:space="preserve"
       style="font-style:normal;font-variant:normal;font-weight:bold;font-stretch:normal;font-size:5.18981px;line-height:0.9;font-family:'Century Gothic';-inkscape-font-specification:'Century Gothic, Bold';font-variant-ligatures:normal;font-variant-caps:normal;font-variant-numeric:normal;font-variant-east-asian:normal;text-align:center;letter-spacing:0px;word-spacing:0.223811px;text-anchor:middle;fill:#2d2565;fill-opacity:1;stroke-width:0.194618"
       x="259.51514"
       y="170.77951"
       id="text1693"><tspan
         style="font-style:normal;font-variant:normal;font-weight:bold;font-stretch:normal;font-size:5.18981px;font-family:'Century Gothic';-inkscape-font-specification:'Century Gothic, Bold';font-variant-ligatures:normal;font-variant-caps:normal;font-variant-numeric:normal;font-variant-east-asian:normal;fill:#2d2565;fill-opacity:1;stroke-width:0.194618"
         y="170.77951"
         x="259.51514"
         sodipodi:role="line"
         id="tspan1691">Creativity</tspan></text><text
       id="text1699"
       y="170.77951"
       x="259.51514"
       style="font-style:normal;font-variant:normal;font-weight:bold;font-stretch:normal;font-size:5.18981px;line-height:0.9;font-family:'Century Gothic';-inkscape-font-specification:'Century Gothic, Bold';font-variant-ligatures:normal;font-variant-caps:normal;font-variant-numeric:normal;font-variant-east-asian:normal;text-align:center;letter-spacing:0px;word-spacing:0.223811px;text-anchor:middle;fill:#2d2565;fill-opacity:1;stroke-width:0.194924;stroke-miterlimit:4;stroke-dasharray:none"
       xml:space="preserve"><tspan
         style="font-style:normal;font-variant:normal;font-weight:bold;font-stretch:normal;font-size:5.18981px;font-family:'Century Gothic';-inkscape-font-specification:'Century Gothic, Bold';font-variant-ligatures:normal;font-variant-caps:normal;font-variant-numeric:normal;font-variant-east-asian:normal;fill:#2d2565;fill-opacity:1;stroke-width:0.194924"
         y="170.77951"
         x="259.51514"
         sodipodi:role="line"
         id="tspan1695" /><tspan
         style="font-style:normal;font-variant:normal;font-weight:bold;font-stretch:normal;font-size:5.18981px;font-family:'Century Gothic';-inkscape-font-specification:'Century Gothic, Bold';font-variant-ligatures:normal;font-variant-caps:normal;font-variant-numeric:normal;font-variant-east-asian:normal;fill:#2d2565;fill-opacity:1;stroke-width:0.194924"
         y="175.45033"
         x="259.51514"
         sodipodi:role="line"
         id="tspan1697">Crash</tspan></text><text
       id="text1703"
       y="170.78494"
       x="249.54439"
       style="font-style:normal;font-variant:normal;font-weight:bold;font-stretch:normal;font-size:5.18981px;line-height:0.9;font-family:'Century Gothic';-inkscape-font-specification:'Century Gothic, Bold';font-variant-ligatures:normal;font-variant-caps:normal;font-variant-numeric:normal;font-variant-east-asian:normal;text-align:center;letter-spacing:0px;word-spacing:0.223811px;text-anchor:middle;fill:#ff8d3a;fill-opacity:1;stroke-width:0.194618"
       xml:space="preserve"><tspan
         y="170.78494"
         x="249.54439"
         id="tspan1701"
         sodipodi:role="line">C</tspan></text><text
       xml:space="preserve"
       style="font-style:normal;font-variant:normal;font-weight:bold;font-stretch:normal;font-size:5.18981px;line-height:0.9;font-family:'Century Gothic';-inkscape-font-specification:'Century Gothic, Bold';font-variant-ligatures:normal;font-variant-caps:normal;font-variant-numeric:normal;font-variant-east-asian:normal;text-align:center;letter-spacing:0px;word-spacing:0.223811px;text-anchor:middle;fill:#6352d8;fill-opacity:1;stroke-width:0.194618"
       x="254.28209"
       y="175.44823"
       id="text1707"><tspan
         sodipodi:role="line"
         id="tspan1705"
         x="254.28209"
         y="175.44823">C</tspan></text></g></g></g>
<path
   sodipodi:nodetypes="csssccssssssccscsssccscsssssssscsssssssssssccccssssscssssssscssssssssscsscccscssssssssssscccsccssssssscssscssssssssssssssssccsscssccssccscsssscscsscsssssscss"
   id="path1026"
   d="m -251.53797,176.51349 c -0.86165,-0.0597 -2.1806,-0.236 -2.931,-0.39165 -0.75039,-0.15566 -1.63162,-0.28302 -1.95829,-0.28302 -0.32666,0 -0.59393,-0.0759 -0.59393,-0.16861 0,-0.0927 -0.10957,-0.12656 -0.2435,-0.0752 -0.13392,0.0514 -0.296,0.009 -0.36017,-0.0953 -0.0642,-0.10383 -0.17905,-0.15023 -0.25529,-0.10311 -0.0762,0.0471 -1.10872,-0.19345 -2.2944,-0.53461 -4.61861,-1.32892 -8.76408,-3.9893 -13.12053,-8.42019 -0.61034,-0.62076 -1.08176,-1.15661 -1.0476,-1.19077 0.0821,-0.0821 -0.98037,-1.50136 -1.79109,-2.39256 -1.51356,-1.66382 -4.70031,-7.71688 -5.67547,-10.78026 -1.27667,-4.01053 -1.5208,-8.76105 -0.46794,-9.10585 0.17242,-0.0565 0.21107,0.009 0.13005,0.22007 -0.17223,0.44882 1.06176,2.78237 1.96244,3.71112 0.42415,0.43736 0.65915,0.72922 0.52221,0.64858 -0.13693,-0.0807 -0.0932,0.0308 0.0972,0.24756 0.1904,0.2168 0.50373,0.47808 0.69628,0.58063 0.32448,0.17281 0.33099,0.16283 0.089,-0.13643 -0.18718,-0.23146 -0.10092,-0.20562 0.30462,0.0913 0.55439,0.40585 0.77797,0.6708 0.34814,0.41257 -0.14571,-0.0875 -0.13804,-0.0327 0.0232,0.1661 0.13244,0.16325 0.32827,0.2865 0.43517,0.27389 0.43954,-0.0518 0.80361,0.028 0.80361,0.1761 0,0.0868 -0.17624,0.12508 -0.39165,0.0851 -0.21542,-0.04 -0.27416,-0.0221 -0.13056,0.0397 0.14361,0.0618 0.37406,0.19973 0.51211,0.30655 0.1915,0.14818 0.22002,0.14264 0.12028,-0.0234 -0.19339,-0.3219 0.20183,-0.2659 0.73331,0.10391 0.25412,0.17682 0.83412,0.42892 1.28888,0.56021 0.45476,0.1313 0.82683,0.30457 0.82683,0.38506 0,0.0805 0.0716,0.10206 0.1592,0.048 0.0876,-0.0541 0.18826,-0.0112 0.22377,0.0953 0.0355,0.10652 0.41427,0.23023 0.8417,0.27491 0.42743,0.0447 1.42956,0.23216 2.22697,0.41665 2.98765,0.69121 8.62903,0.26123 11.95181,-0.91096 1.2839,-0.45293 3.11986,-1.47657 4.58334,-2.55545 0.60509,-0.44606 1.43675,-1.00686 1.84816,-1.2462 0.4114,-0.23935 1.1646,-0.81498 1.67378,-1.27919 0.50918,-0.4642 1.12665,-0.96858 1.37215,-1.12084 0.48742,-0.3023 2.71298,-2.19222 3.16487,-2.68756 0.15483,-0.16973 0.34029,-0.3086 0.41213,-0.3086 0.0718,0 0.44744,-0.31682 0.83467,-0.70406 0.39886,-0.39885 0.80892,-0.66382 0.94595,-0.61124 0.13304,0.051 0.19735,0.0207 0.1429,-0.0673 -0.12851,-0.20794 0.60665,-0.72457 0.83246,-0.58501 0.0949,0.0587 0.12261,0.0258 0.0615,-0.0731 -0.0611,-0.0988 0.21109,-0.39293 0.60486,-0.65351 0.57815,-0.3826 0.74827,-0.42857 0.88392,-0.23883 0.12767,0.17858 0.14471,0.1625 0.071,-0.067 -0.0606,-0.18872 0.0261,-0.36781 0.23111,-0.47755 0.18045,-0.0966 0.43211,-0.27591 0.55925,-0.39852 0.57048,-0.55018 1.99994,-1.35648 2.27658,-1.28414 0.16776,0.0439 0.26699,0.0182 0.22051,-0.057 -0.1193,-0.19303 2.71764,-1.20738 4.17468,-1.49267 3.00569,-0.58851 6.3126,-0.66005 8.52945,-0.18451 2.12122,0.45502 2.94217,0.66578 3.13326,0.80439 0.0957,0.0694 0.46183,0.2189 0.81352,0.33212 0.3517,0.11322 1.40918,0.70658 2.34995,1.31856 1.56426,1.01757 2.25878,1.55363 3.77829,2.91623 0.72938,0.65405 1.38014,0.62708 2.09979,-0.087 1.46859,-1.45731 4.02613,-3.27517 5.58036,-3.96642 0.47869,-0.2129 0.98784,-0.44272 1.13145,-0.51072 0.24419,-0.11561 1.39101,-0.38988 3.65548,-0.87421 1.51696,-0.32446 5.16598,-0.42937 6.26853,-0.18022 0.52546,0.11874 1.42538,0.31772 1.99981,0.44217 1.48326,0.32134 4.72677,1.56415 5.55921,2.1301 2.37132,1.61219 5.51356,3.9434 6.22975,4.62182 0.12204,0.11561 0.88772,0.79736 1.7015,1.515 0.81378,0.71764 1.52752,1.37023 1.58609,1.45021 0.0586,0.08 0.16318,0.13049 0.23246,0.11223 0.0693,-0.0183 0.60885,0.35408 1.19903,0.82743 0.59019,0.47334 1.34326,1.04949 1.67349,1.28034 0.33023,0.23084 1.12659,0.81964 1.76968,1.30845 3.3038,2.51115 7.30988,3.76053 12.16478,3.79384 1.38821,0.01 3.18384,-0.0433 3.9903,-0.11729 1.60803,-0.14764 3.6688,-0.636 3.6688,-0.86945 0,-0.0814 0.0783,-0.0995 0.17407,-0.0404 0.0957,0.0592 0.17407,0.0417 0.17407,-0.0388 0,-0.0805 0.37207,-0.25376 0.82683,-0.38506 0.45476,-0.13129 1.03476,-0.38339 1.28889,-0.56021 0.25412,-0.17683 0.54786,-0.3215 0.65276,-0.3215 0.10489,0 0.19072,-0.0783 0.19072,-0.17407 0,-0.0957 0.10623,-0.17407 0.23607,-0.17407 0.12984,0 0.61278,-0.28764 1.07321,-0.6392 0.46042,-0.35156 0.77649,-0.54108 0.70238,-0.42116 -0.0741,0.11991 0.14232,0.0364 0.48097,-0.18559 0.33865,-0.22199 0.58406,-0.43528 0.54535,-0.47399 -0.0387,-0.0387 -0.20935,0.033 -0.3792,0.15939 -0.16986,0.12637 -0.0738,-0.005 0.21338,-0.29105 0.28721,-0.28645 0.57654,-0.49428 0.64295,-0.46185 0.10086,0.0493 1.06466,-1.41655 1.11134,-1.69017 0.008,-0.0479 0.18495,-0.46619 0.39284,-0.92959 0.2079,-0.46341 0.33451,-0.91292 0.28137,-0.99891 -0.0531,-0.086 0.0143,-0.11378 0.14993,-0.0617 0.69028,0.26488 0.78366,1.45206 0.37604,4.78057 -0.28818,2.35319 -0.45962,2.94947 -1.87531,6.52244 -0.36652,0.92502 -2.46644,5.04609 -2.60183,5.10606 -0.072,0.0319 -0.131,0.1413 -0.131,0.24309 0,0.58393 -5.16992,7.44502 -5.60992,7.44502 -0.0517,0 -0.47518,0.37413 -0.94105,0.83141 -0.98861,0.97038 -3.15532,2.72605 -4.15436,3.36625 -3.42302,2.19352 -8.00975,3.89049 -11.48865,4.25049 -0.47869,0.0495 -1.65366,0.21631 -2.61105,0.37061 -0.95739,0.15429 -1.95612,0.28923 -2.2194,0.29986 -0.26328,0.0106 -0.47877,0.0587 -0.47886,0.10673 -3.5e-4,0.17633 -5.88367,0.0732 -7.57189,-0.13275 -4.05397,-0.49451 -7.70638,-1.6765 -12.50431,-4.04662 -5.16276,-2.55036 -11.39449,-6.66829 -13.15337,-8.69177 -0.53629,-0.61698 -1.21008,-1.35192 -1.4973,-1.6332 -0.28721,-0.28129 -0.40471,-0.44686 -0.2611,-0.36793 0.22498,0.12364 0.22805,0.10275 0.0222,-0.15102 -0.13139,-0.16199 -0.34681,-0.29452 -0.47869,-0.29452 -0.13189,0 -0.23979,-0.15391 -0.23979,-0.34202 0,-0.71563 -1.17409,-0.85558 -1.51163,-0.18019 -0.11961,0.23934 -0.59217,0.79049 -1.05011,1.22478 -0.45795,0.43428 -1.19789,1.22405 -1.64431,1.75504 -0.8704,1.03529 -3.81589,3.36591 -4.83497,3.82568 -0.34094,0.15382 -0.97238,0.54813 -1.40321,0.87624 -0.6576,0.50084 -1.67783,1.13275 -4.0871,2.53148 -0.62562,0.36322 -2.94304,1.47387 -3.65903,1.75364 -0.38295,0.14964 -0.82842,0.38509 -0.98993,0.52322 -0.16151,0.13814 -0.38881,0.19235 -0.5051,0.12048 -0.12345,-0.0763 -0.30913,0.003 -0.44615,0.19029 -0.12908,0.17653 -0.2359,0.24724 -0.23736,0.15714 -0.001,-0.0901 -0.077,-0.0463 -0.16779,0.0973 -0.11223,0.17746 -0.43199,0.25545 -0.99824,0.24346 -0.54193,-0.0115 -0.71144,0.0275 -0.48498,0.11138 0.32348,0.11989 0.31488,0.14216 -0.12137,0.31447 -0.25823,0.10199 -1.04155,0.35778 -1.7407,0.56841 -0.69916,0.21063 -1.31036,0.42955 -1.35823,0.48649 -0.0479,0.0569 -0.2437,0.11453 -0.43517,0.12799 -0.19148,0.0135 -1.13146,0.15906 -2.08885,0.32357 -0.95739,0.16452 -2.21069,0.3333 -2.78513,0.37508 -2.95206,0.21471 -6.43867,0.30937 -7.83315,0.21266 z m 10.1831,-0.81859 c 0,-0.0792 -0.23499,-0.10944 -0.52221,-0.0673 -0.28721,0.0421 -0.52221,0.10692 -0.52221,0.14392 0,0.037 0.235,0.0673 0.52221,0.0673 0.28722,0 0.52221,-0.0648 0.52221,-0.14392 z m 1.4796,-0.27905 c 0.4787,-0.1332 0.75286,-0.24767 0.60925,-0.25439 -0.14361,-0.007 -0.65276,0.0968 -1.13146,0.22998 -0.47869,0.1332 -0.75285,0.24767 -0.60924,0.25439 0.1436,0.007 0.65276,-0.0968 1.13145,-0.22998 z m 3.13204,-0.79353 c 0.061,-0.0987 -0.009,-0.12785 -0.1638,-0.0684 -0.30156,0.11572 -0.35674,0.24049 -0.10635,0.24049 0.0901,0 0.21166,-0.0774 0.27015,-0.17208 z m -5.48199,-34.89293 c 0,-0.0355 -0.15666,-0.0237 -0.34814,0.0264 -0.19148,0.0501 -0.34814,0.16299 -0.34814,0.25094 0,0.0883 0.15581,0.0765 0.34814,-0.0264 0.19148,-0.10248 0.34814,-0.2154 0.34814,-0.25093 z"
   style="fill:#292018;fill-opacity:1;stroke:none;stroke-width:0.17407;stroke-opacity:1" /></svg>
